<?xml version="1.0" standalone="no"?>
<!DOCTYPE svg PUBLIC "-//W3C//DTD SVG 1.1//EN" "http://www.w3.org/Graphics/SVG/1.1/DTD/svg11.dtd">
<svg width="100%" height="100%" viewBox="0 0 1024 350" version="1.1" xmlns="http://www.w3.org/2000/svg" xmlns:xlink="http://www.w3.org/1999/xlink" xml:space="preserve" style="fill-rule:evenodd;clip-rule:evenodd;stroke-linejoin:round;stroke-miterlimit:1.41421;">
    <g transform="matrix(2.70012,0,0,2.70012,-1189.75,-653.947)">
        <g id="Layer1">
            <g>
                <g transform="matrix(0.680216,-1.66605e-16,1.66605e-16,0.680216,427.769,-169.887)">
                    <path d="M65.712,646.675C54.268,646.675 45.188,656.128 45.188,667.446C45.188,679.636 53.274,689.961 65.96,689.961C78.275,689.961 85.863,680.01 85.863,668.193C85.863,656.5 77.777,646.675 65.712,646.675M99.422,683.12C94.072,696.802 83.002,705.136 68.075,705.136C58,705.136 51.407,702.026 44.814,694.562L44.814,702.897L29.639,702.897L29.639,610.85L46.183,610.85L46.183,640.081C51.781,634.483 59.741,631.498 67.703,631.498C87.728,631.498 102.406,648.664 102.406,668.068C102.406,673.169 101.287,678.392 99.422,683.12" style="fill:rgb(216,31,38);fill-rule:nonzero;"/>
                </g>
                <g transform="matrix(0.680216,-1.66605e-16,1.66605e-16,0.680216,427.769,-169.887)">
                    <path d="M143.83,646.675C131.516,646.675 123.306,656.873 123.306,668.69C123.306,680.257 132.013,689.961 143.83,689.961C156.145,689.961 163.981,680.01 163.981,668.193C163.981,656.375 156.02,646.675 143.83,646.675M164.479,702.897L164.479,694.314C159.005,700.782 148.807,705.136 140.348,705.136C119.574,705.136 106.761,687.597 106.761,667.943C106.761,648.167 120.941,631.498 141.343,631.498C148.931,631.498 156.145,634.608 161.743,639.708C162.488,640.454 163.608,641.573 164.23,642.569L164.479,642.569L164.479,633.861L179.654,633.861L179.654,702.897L164.479,702.897Z" style="fill:rgb(216,31,38);fill-rule:nonzero;"/>
                </g>
                <g transform="matrix(0.680216,-1.66605e-16,1.66605e-16,0.680216,427.769,-169.887)">
                    <path d="M207.395,664.087L207.395,702.897L190.85,702.897L190.85,633.861L206.026,633.861L206.026,639.956L206.274,639.956C210.878,633.239 214.236,631.498 222.446,631.498L222.446,647.545C211.624,647.917 207.395,654.012 207.395,664.087" style="fill:rgb(216,31,38);fill-rule:nonzero;"/>
                </g>
                <g transform="matrix(0.680216,-1.66605e-16,1.66605e-16,0.680216,427.769,-169.887)">
                    <path d="M263.537,704.514C243.512,704.514 226.968,689.214 226.968,668.938C226.968,648.912 243.637,633.116 263.537,633.116C278.34,633.116 291.775,641.45 297.371,655.381L287.792,655.381C283.066,646.426 273.987,640.953 263.786,640.953C248.239,640.953 235.674,653.018 235.674,668.69C235.674,684.488 247.989,696.678 263.786,696.678C273.863,696.678 283.066,691.951 287.792,682.871L297.371,682.871C290.407,696.553 279.336,704.514 263.537,704.514" style="fill:rgb(216,31,38);fill-rule:nonzero;"/>
                </g>
                <g transform="matrix(0.680216,-1.66605e-16,1.66605e-16,0.680216,427.769,-169.887)">
                    <path d="M339.169,640.953C322.998,640.953 311.305,653.018 311.305,669.063C311.305,684.985 323.247,696.678 339.169,696.678C354.594,696.678 366.411,684.116 366.411,668.939C366.411,653.762 354.594,640.953 339.169,640.953M365.912,702.898L365.912,690.957L365.663,690.957C359.692,699.913 349.741,704.514 339.169,704.514C318.769,704.514 302.599,689.214 302.599,668.69C302.599,648.292 319.141,633.117 339.169,633.117C349.866,633.117 359.817,637.594 365.663,646.799L365.912,646.799L365.912,634.856L374.62,634.856L374.62,702.898L365.912,702.898Z" style="fill:rgb(216,31,38);fill-rule:nonzero;"/>
                </g>
                <g transform="matrix(0.680216,-1.66605e-16,1.66605e-16,0.680216,427.769,-169.887)">
                    <path d="M477.12,702.897L477.12,663.466C477.12,651.399 472.018,640.952 458.586,640.952C445.152,640.952 440.051,651.399 440.051,663.466L440.051,702.897L431.343,702.897L431.343,663.466C431.343,651.399 426.244,640.952 412.809,640.952C399.375,640.952 394.276,651.399 394.276,663.466L394.276,702.897L385.568,702.897L385.568,634.855L394.276,634.855L394.276,642.693C398.382,636.224 405.347,633.116 412.809,633.116C422.511,633.116 430.971,637.716 435.699,646.176C440.922,637.842 448.632,633.116 458.586,633.116C475.999,633.116 485.826,645.802 485.826,662.47L485.826,702.897L477.12,702.897Z" style="fill:rgb(216,31,38);fill-rule:nonzero;"/>
                </g>
                <g transform="matrix(0.680216,-1.66605e-16,1.66605e-16,0.680216,427.769,-169.887)">
                    <path d="M531.247,640.953C515.821,640.953 504.005,653.762 504.005,668.939C504.005,684.116 515.821,696.678 531.247,696.678C547.169,696.678 559.11,684.985 559.11,669.063C559.11,653.018 547.415,640.953 531.247,640.953M531.247,704.514C520.672,704.514 510.72,699.663 504.75,690.957L504.502,690.957L504.502,726.781L495.796,726.781L495.796,634.856L504.502,634.856L504.502,646.799L504.75,646.799C510.97,637.968 520.547,633.117 531.247,633.117C551.273,633.117 567.817,648.292 567.817,668.69C567.817,689.214 551.646,704.514 531.247,704.514" style="fill:rgb(216,31,38);fill-rule:nonzero;"/>
                </g>
                <g transform="matrix(0.938587,0,0,0.920702,-342.037,163.709)">
                    <path d="M840.86,189.597L840.86,217.443L843.512,217.443L843.512,203.949L860.048,203.949L860.048,217.443L862.7,217.443L862.7,189.597L860.048,189.597L860.048,201.687L843.512,201.687L843.512,189.597L840.86,189.597Z" style="fill:white;fill-rule:nonzero;"/>
                    <path d="M869.486,203.52C869.486,201.986 869.688,200.491 870.091,199.035C870.494,197.579 871.118,196.272 871.963,195.115C872.808,193.958 873.893,193.029 875.219,192.327C876.545,191.625 878.131,191.274 879.977,191.274C881.823,191.274 883.403,191.625 884.716,192.327C886.029,193.029 887.108,193.958 887.953,195.115C888.798,196.272 889.422,197.579 889.825,199.035C890.228,200.491 890.429,201.986 890.429,203.52C890.429,205.028 890.228,206.516 889.825,207.985C889.422,209.454 888.798,210.767 887.953,211.924C887.108,213.081 886.029,214.011 884.716,214.713C883.403,215.415 881.823,215.766 879.977,215.766C878.131,215.766 876.545,215.415 875.219,214.713C873.893,214.011 872.808,213.081 871.963,211.924C871.118,210.767 870.494,209.454 870.091,207.985C869.688,206.516 869.486,205.028 869.486,203.52ZM866.834,203.52C866.834,205.444 867.107,207.277 867.653,209.019C868.199,210.761 869.018,212.295 870.11,213.621C871.202,214.947 872.574,216.006 874.225,216.799C875.876,217.592 877.793,217.989 879.977,217.989C882.161,217.989 884.072,217.592 885.71,216.799C887.348,216.006 888.713,214.947 889.805,213.621C890.897,212.295 891.716,210.761 892.262,209.019C892.808,207.277 893.081,205.444 893.081,203.52C893.081,201.596 892.808,199.763 892.262,198.021C891.716,196.279 890.897,194.738 889.805,193.399C888.713,192.06 887.348,190.994 885.71,190.201C884.072,189.408 882.161,189.012 879.977,189.012C877.793,189.012 875.876,189.408 874.225,190.201C872.574,190.994 871.202,192.06 870.11,193.399C869.018,194.738 868.199,196.279 867.653,198.021C867.107,199.763 866.834,201.596 866.834,203.52Z" style="fill:white;fill-rule:nonzero;"/>
                    <path d="M897.176,189.597L897.176,217.443L899.828,217.443L899.828,193.887L899.906,193.887L916.13,217.443L919.094,217.443L919.094,189.597L916.442,189.597L916.442,213.153L916.364,213.153L900.14,189.597L897.176,189.597Z" style="fill:white;fill-rule:nonzero;"/>
                    <path d="M948.461,217.443L948.461,203.286L936.644,203.286L936.644,205.548L946.121,205.548C946.147,207.03 945.952,208.395 945.536,209.643C945.12,210.891 944.496,211.97 943.664,212.88C942.832,213.79 941.812,214.498 940.603,215.005C939.394,215.512 938.022,215.766 936.488,215.766C934.642,215.766 933.056,215.415 931.73,214.713C930.404,214.011 929.319,213.081 928.474,211.924C927.629,210.767 927.005,209.454 926.602,207.985C926.199,206.516 925.997,205.028 925.997,203.52C925.997,201.986 926.199,200.491 926.602,199.035C927.005,197.579 927.629,196.272 928.474,195.115C929.319,193.958 930.404,193.029 931.73,192.327C933.056,191.625 934.642,191.274 936.488,191.274C937.814,191.274 939.01,191.488 940.076,191.917C941.142,192.346 942.059,192.899 942.826,193.575C943.593,194.251 944.204,194.998 944.659,195.817C945.114,196.636 945.38,197.449 945.458,198.255L948.11,198.255C947.85,196.721 947.369,195.382 946.667,194.238C945.965,193.094 945.107,192.132 944.093,191.352C943.079,190.572 941.922,189.987 940.622,189.597C939.322,189.207 937.944,189.012 936.488,189.012C934.304,189.012 932.387,189.408 930.736,190.201C929.085,190.994 927.713,192.06 926.621,193.399C925.529,194.738 924.71,196.279 924.164,198.021C923.618,199.763 923.345,201.596 923.345,203.52C923.345,205.444 923.618,207.277 924.164,209.019C924.71,210.761 925.529,212.295 926.621,213.621C927.713,214.947 929.085,216.006 930.736,216.799C932.387,217.592 934.304,217.989 936.488,217.989C937.502,217.989 938.484,217.885 939.433,217.677C940.382,217.469 941.272,217.137 942.104,216.682C942.936,216.227 943.697,215.642 944.386,214.927C945.075,214.212 945.653,213.361 946.121,212.373L946.199,212.373L946.55,217.443L948.461,217.443Z" style="fill:white;fill-rule:nonzero;"/>
                    <path d="M964.412,189.597L964.412,217.443L967.064,217.443L967.064,207.888L972.407,202.935L983.99,217.443L987.422,217.443L974.396,201.102L986.837,189.597L983.249,189.597L967.064,204.573L967.064,189.597L964.412,189.597Z" style="fill:white;fill-rule:nonzero;"/>
                    <path d="M990.854,203.52C990.854,201.986 991.056,200.491 991.459,199.035C991.862,197.579 992.486,196.272 993.331,195.115C994.176,193.958 995.261,193.029 996.587,192.327C997.913,191.625 999.499,191.274 1001.35,191.274C1003.19,191.274 1004.77,191.625 1006.08,192.327C1007.4,193.029 1008.48,193.958 1009.32,195.115C1010.17,196.272 1010.79,197.579 1011.19,199.035C1011.6,200.491 1011.8,201.986 1011.8,203.52C1011.8,205.028 1011.6,206.516 1011.19,207.985C1010.79,209.454 1010.17,210.767 1009.32,211.924C1008.48,213.081 1007.4,214.011 1006.08,214.713C1004.77,215.415 1003.19,215.766 1001.35,215.766C999.499,215.766 997.913,215.415 996.587,214.713C995.261,214.011 994.176,213.081 993.331,211.924C992.486,210.767 991.862,209.454 991.459,207.985C991.056,206.516 990.854,205.028 990.854,203.52ZM988.202,203.52C988.202,205.444 988.475,207.277 989.021,209.019C989.567,210.761 990.386,212.295 991.478,213.621C992.57,214.947 993.942,216.006 995.593,216.799C997.244,217.592 999.161,217.989 1001.35,217.989C1003.53,217.989 1005.44,217.592 1007.08,216.799C1008.72,216.006 1010.08,214.947 1011.17,213.621C1012.26,212.295 1013.08,210.761 1013.63,209.019C1014.18,207.277 1014.45,205.444 1014.45,203.52C1014.45,201.596 1014.18,199.763 1013.63,198.021C1013.08,196.279 1012.26,194.738 1011.17,193.399C1010.08,192.06 1008.72,190.994 1007.08,190.201C1005.44,189.408 1003.53,189.012 1001.35,189.012C999.161,189.012 997.244,189.408 995.593,190.201C993.942,190.994 992.57,192.06 991.478,193.399C990.386,194.738 989.567,196.279 989.021,198.021C988.475,199.763 988.202,201.596 988.202,203.52Z" style="fill:white;fill-rule:nonzero;"/>
                    <path d="M1018.54,189.597L1018.54,217.443L1021.2,217.443L1021.2,193.887L1021.27,193.887L1037.5,217.443L1040.46,217.443L1040.46,189.597L1037.81,189.597L1037.81,213.153L1037.73,213.153L1021.51,189.597L1018.54,189.597Z" style="fill:white;fill-rule:nonzero;"/>
                    <path d="M1069.83,217.443L1069.83,203.286L1058.01,203.286L1058.01,205.548L1067.49,205.548C1067.52,207.03 1067.32,208.395 1066.9,209.643C1066.49,210.891 1065.86,211.97 1065.03,212.88C1064.2,213.79 1063.18,214.498 1061.97,215.005C1060.76,215.512 1059.39,215.766 1057.86,215.766C1056.01,215.766 1054.42,215.415 1053.1,214.713C1051.77,214.011 1050.69,213.081 1049.84,211.924C1049,210.767 1048.37,209.454 1047.97,207.985C1047.57,206.516 1047.37,205.028 1047.37,203.52C1047.37,201.986 1047.57,200.491 1047.97,199.035C1048.37,197.579 1049,196.272 1049.84,195.115C1050.69,193.958 1051.77,193.029 1053.1,192.327C1054.42,191.625 1056.01,191.274 1057.86,191.274C1059.18,191.274 1060.38,191.488 1061.44,191.917C1062.51,192.346 1063.43,192.899 1064.19,193.575C1064.96,194.251 1065.57,194.998 1066.03,195.817C1066.48,196.636 1066.75,197.449 1066.83,198.255L1069.48,198.255C1069.22,196.721 1068.74,195.382 1068.04,194.238C1067.33,193.094 1066.47,192.132 1065.46,191.352C1064.45,190.572 1063.29,189.987 1061.99,189.597C1060.69,189.207 1059.31,189.012 1057.86,189.012C1055.67,189.012 1053.76,189.408 1052.1,190.201C1050.45,190.994 1049.08,192.06 1047.99,193.399C1046.9,194.738 1046.08,196.279 1045.53,198.021C1044.99,199.763 1044.71,201.596 1044.71,203.52C1044.71,205.444 1044.99,207.277 1045.53,209.019C1046.08,210.761 1046.9,212.295 1047.99,213.621C1049.08,214.947 1050.45,216.006 1052.1,216.799C1053.76,217.592 1055.67,217.989 1057.86,217.989C1058.87,217.989 1059.85,217.885 1060.8,217.677C1061.75,217.469 1062.64,217.137 1063.47,216.682C1064.3,216.227 1065.07,215.642 1065.75,214.927C1066.44,214.212 1067.02,213.361 1067.49,212.373L1067.57,212.373L1067.92,217.443L1069.83,217.443Z" style="fill:white;fill-rule:nonzero;"/>
                </g>
                <g transform="matrix(1.06316,0,0,1.06316,-253.745,54.7751)">
                    <path d="M923.693,275.784L926.753,275.784C926.729,275.016 926.807,274.254 926.987,273.498C927.167,272.742 927.461,272.064 927.869,271.464C928.277,270.864 928.799,270.378 929.435,270.006C930.071,269.634 930.833,269.448 931.721,269.448C932.393,269.448 933.029,269.556 933.629,269.772C934.229,269.988 934.751,270.3 935.195,270.708C935.639,271.116 935.993,271.602 936.257,272.166C936.521,272.73 936.653,273.36 936.653,274.056C936.653,274.944 936.515,275.724 936.239,276.396C935.963,277.068 935.555,277.692 935.015,278.268C934.475,278.844 933.797,279.414 932.981,279.978C932.165,280.542 931.217,281.16 930.137,281.832C929.249,282.36 928.397,282.924 927.581,283.524C926.765,284.124 926.033,284.82 925.385,285.612C924.737,286.404 924.203,287.334 923.783,288.402C923.363,289.47 923.093,290.76 922.973,292.272L939.641,292.272L939.641,289.572L926.537,289.572C926.681,288.78 926.987,288.078 927.455,287.466C927.923,286.854 928.487,286.284 929.147,285.756C929.807,285.228 930.533,284.73 931.325,284.262C932.117,283.794 932.909,283.32 933.701,282.84C934.493,282.336 935.261,281.808 936.005,281.256C936.749,280.704 937.409,280.086 937.985,279.402C938.561,278.718 939.023,277.944 939.371,277.08C939.719,276.216 939.893,275.22 939.893,274.092C939.893,272.892 939.683,271.836 939.263,270.924C938.843,270.012 938.273,269.25 937.553,268.638C936.833,268.026 935.987,267.558 935.015,267.234C934.043,266.91 933.005,266.748 931.901,266.748C930.557,266.748 929.357,266.976 928.301,267.432C927.245,267.888 926.363,268.518 925.655,269.322C924.947,270.126 924.425,271.08 924.089,272.184C923.753,273.288 923.621,274.488 923.693,275.784Z" style="fill:white;fill-rule:nonzero;"/>
                    <path d="M946.877,279.708C946.877,279.084 946.883,278.394 946.895,277.638C946.907,276.882 946.967,276.126 947.075,275.37C947.183,274.614 947.339,273.876 947.543,273.156C947.747,272.436 948.047,271.806 948.443,271.266C948.839,270.726 949.337,270.288 949.937,269.952C950.537,269.616 951.269,269.448 952.133,269.448C952.997,269.448 953.729,269.616 954.329,269.952C954.929,270.288 955.427,270.726 955.823,271.266C956.219,271.806 956.519,272.436 956.723,273.156C956.927,273.876 957.083,274.614 957.191,275.37C957.299,276.126 957.359,276.882 957.371,277.638C957.383,278.394 957.389,279.084 957.389,279.708C957.389,280.668 957.359,281.742 957.299,282.93C957.239,284.118 957.047,285.234 956.723,286.278C956.399,287.322 955.877,288.204 955.157,288.924C954.437,289.644 953.429,290.004 952.133,290.004C950.837,290.004 949.829,289.644 949.109,288.924C948.389,288.204 947.867,287.322 947.543,286.278C947.219,285.234 947.027,284.118 946.967,282.93C946.907,281.742 946.877,280.668 946.877,279.708ZM943.637,279.744C943.637,280.68 943.661,281.652 943.709,282.66C943.757,283.668 943.877,284.652 944.069,285.612C944.261,286.572 944.537,287.478 944.897,288.33C945.257,289.182 945.749,289.932 946.373,290.58C946.997,291.228 947.783,291.738 948.731,292.11C949.679,292.482 950.813,292.668 952.133,292.668C953.477,292.668 954.617,292.482 955.553,292.11C956.489,291.738 957.269,291.228 957.893,290.58C958.517,289.932 959.009,289.182 959.369,288.33C959.729,287.478 960.005,286.572 960.197,285.612C960.389,284.652 960.509,283.668 960.557,282.66C960.605,281.652 960.629,280.68 960.629,279.744C960.629,278.808 960.605,277.836 960.557,276.828C960.509,275.82 960.389,274.836 960.197,273.876C960.005,272.916 959.729,272.004 959.369,271.14C959.009,270.276 958.517,269.52 957.893,268.872C957.269,268.224 956.483,267.708 955.535,267.324C954.587,266.94 953.453,266.748 952.133,266.748C950.813,266.748 949.679,266.94 948.731,267.324C947.783,267.708 946.997,268.224 946.373,268.872C945.749,269.52 945.257,270.276 944.897,271.14C944.537,272.004 944.261,272.916 944.069,273.876C943.877,274.836 943.757,275.82 943.709,276.828C943.661,277.836 943.637,278.808 943.637,279.744Z" style="fill:white;fill-rule:nonzero;"/>
                    <path d="M974.957,292.272L974.957,266.748L972.617,266.748C972.449,267.708 972.137,268.5 971.681,269.124C971.225,269.748 970.667,270.24 970.007,270.6C969.347,270.96 968.609,271.206 967.793,271.338C966.977,271.47 966.137,271.536 965.273,271.536L965.273,273.984L971.897,273.984L971.897,292.272L974.957,292.272Z" style="fill:white;fill-rule:nonzero;"/>
                    <path d="M999.077,269.88L999.077,267.18L986.477,267.18L984.101,280.428L986.729,280.572C987.329,279.852 988.019,279.27 988.799,278.826C989.579,278.382 990.473,278.16 991.481,278.16C992.345,278.16 993.131,278.304 993.839,278.592C994.547,278.88 995.153,279.282 995.657,279.798C996.161,280.314 996.551,280.926 996.827,281.634C997.103,282.342 997.241,283.116 997.241,283.956C997.241,284.964 997.097,285.846 996.809,286.602C996.521,287.358 996.131,287.988 995.639,288.492C995.147,288.996 994.571,289.374 993.911,289.626C993.251,289.878 992.561,290.004 991.841,290.004C991.073,290.004 990.371,289.89 989.735,289.662C989.099,289.434 988.547,289.11 988.079,288.69C987.611,288.27 987.239,287.778 986.963,287.214C986.687,286.65 986.525,286.044 986.477,285.396L983.417,285.396C983.441,286.548 983.669,287.58 984.101,288.492C984.533,289.404 985.121,290.166 985.865,290.778C986.609,291.39 987.467,291.858 988.439,292.182C989.411,292.506 990.449,292.668 991.553,292.668C993.041,292.668 994.343,292.434 995.459,291.966C996.575,291.498 997.505,290.868 998.249,290.076C998.993,289.284 999.551,288.378 999.923,287.358C1000.3,286.338 1000.48,285.288 1000.48,284.208C1000.48,282.744 1000.26,281.466 999.833,280.374C999.401,279.282 998.813,278.37 998.069,277.638C997.325,276.906 996.449,276.36 995.441,276C994.433,275.64 993.365,275.46 992.237,275.46C991.373,275.46 990.503,275.61 989.627,275.91C988.751,276.21 988.037,276.672 987.485,277.296L987.413,277.224L988.781,269.88L999.077,269.88Z" style="fill:white;fill-rule:nonzero;"/>
                </g>
                <g transform="matrix(0.896962,0,0,0.896962,-73.8349,106.838)">
                    <g transform="matrix(0.920265,0,0,0.920265,446.004,-277.243)">
                        <path d="M448.588,585.777L447.857,586.924L447.583,585.575L446.272,585.246L447.456,584.571L447.381,583.221L448.369,584.132L449.645,583.641L449.076,584.884L449.938,585.92L448.588,585.777ZM454.48,576.415C442.41,575.583 436.628,591.555 448.232,597.503C447.042,596.555 446.117,595.134 445.671,593.439C445.011,591.048 445.374,588.476 446.691,586.377L446.962,586.558C445.703,588.567 445.335,591.048 445.979,593.364C446.446,595.083 447.438,596.552 448.705,597.448C446.569,595.126 447.419,591.364 450.724,589.863C452.893,588.896 454.664,584.863 453.04,582.363C451.614,580.118 451.98,577.711 454.48,576.415" style="fill:rgb(216,31,38);"/>
                    </g>
                    <g transform="matrix(0.920265,0,0,0.920265,446.004,-277.243)">
                        <path d="M436.213,596.922L435.961,595.591L434.63,595.264L435.814,594.587L435.743,593.237L436.744,594.151L438.004,593.659L437.44,594.897L438.296,595.939L436.946,595.793L436.213,596.922ZM443.824,600.043C441.346,599.935 439.026,598.784 437.44,596.887L437.68,596.667C439.21,598.51 441.452,599.624 443.843,599.735C445.615,599.81 447.326,599.318 448.561,598.404C445.692,599.703 442.387,597.724 442.002,594.132C441.726,591.76 438.442,588.84 435.581,589.605C433.004,590.283 430.817,589.188 430.36,586.396C425.836,597.647 439.274,608.083 448.524,598.829C447.244,599.685 445.596,600.131 443.824,600.043" style="fill:rgb(216,31,38);"/>
                    </g>
                    <g transform="matrix(0.920265,0,0,0.920265,446.004,-277.243)">
                        <path d="M442.876,609.953L442.148,611.101L441.872,609.751L440.559,609.422L441.744,608.747L441.675,607.397L442.674,608.309L443.933,607.817L443.37,609.058L444.226,610.096L442.876,609.953ZM449.815,598.936C450.262,600.426 450.177,602.153 449.555,603.821C448.678,606.157 446.853,608.016 444.555,608.93L444.446,608.638C446.654,607.743 448.404,605.955 449.247,603.712C449.863,602.049 449.927,600.288 449.449,598.816C449.781,601.959 446.88,604.488 443.349,603.747C441.016,603.256 437.223,605.482 437.058,608.455C436.909,611.101 435.196,612.854 432.403,612.416C441.718,620.216 455.819,610.62 449.815,598.936" style="fill:rgb(216,31,38);"/>
                    </g>
                    <g transform="matrix(0.920265,0,0,0.920265,446.004,-277.243)">
                        <path d="M458.184,608.675L457.456,609.822L457.18,608.492L455.867,608.162L457.052,607.487L456.962,606.138L457.966,607.052L459.244,606.557L458.662,607.798L459.536,608.837L458.184,608.675ZM450.347,597.796C451.898,597.836 453.511,598.444 454.9,599.552C456.853,601.103 458.056,603.417 458.224,605.883L457.892,605.901C457.743,603.529 456.579,601.303 454.698,599.807C453.317,598.704 451.664,598.099 450.121,598.107C453.192,598.752 454.709,602.302 452.913,605.426C451.728,607.506 452.674,611.794 455.447,612.872C457.929,613.837 459.042,615.991 457.764,618.526C468.075,612.076 463.301,595.687 450.347,597.796" style="fill:rgb(216,31,38);"/>
                    </g>
                    <g transform="matrix(0.920265,0,0,0.920265,446.004,-277.243)">
                        <path d="M461.706,593.75L460.978,594.898L460.702,593.551L459.389,593.221L460.574,592.544L460.5,591.194L461.488,592.105L462.763,591.614L462.197,592.855L463.056,593.896L461.706,593.75ZM449.443,596.845C449.974,595.416 451.047,594.101 452.508,593.147C454.57,591.779 457.142,591.343 459.535,591.944L459.458,592.254C457.142,591.67 454.682,592.09 452.673,593.423C451.186,594.388 450.096,595.801 449.629,597.286C451.175,594.518 455.027,594.167 457.474,596.85C459.076,598.62 463.438,599.04 465.338,596.741C467.017,594.677 469.421,594.279 471.429,596.287C468.47,584.532 451.504,583.96 449.443,596.845" style="fill:rgb(216,31,38);"/>
                    </g>
                </g>
            </g>
        </g>
    </g>
</svg>
