<?xml version="1.0" encoding="utf-8"?>
<!-- Generator: Adobe Illustrator 15.0.2, SVG Export Plug-In . SVG Version: 6.00 Build 0)  -->
<!DOCTYPE svg PUBLIC "-//W3C//DTD SVG 1.1//EN" "http://www.w3.org/Graphics/SVG/1.1/DTD/svg11.dtd">
<svg version="1.1" id="Layer_1" xmlns="http://www.w3.org/2000/svg" xmlns:xlink="http://www.w3.org/1999/xlink" x="0px" y="0px"
	 width="412.939px" height="443.432px" viewBox="0 0 412.939 443.432" enable-background="new 0 0 412.939 443.432"
	 xml:space="preserve">
<g>
	<defs>
		<path id="SVGID_1_" d="M46.862,202.888c-2.985,14.557-3.78,29.457-2.261,44.174c-1.298,1.794-3.001,2.959-5.32,3.248
			c-7.717,0.968-12.274-8.051-10.308-16.307c1.96-8.251,5.784-16.398,5.784-16.398S12.15,229.93,8.007,250.157
			c-4.144,20.228,2.747,42.195,23.683,56.228c6.66,4.466,14.163,8.835,22.138,12.474c-1.102-6.393-1.707-12.954-1.707-19.658
			c0-5.495,0.396-10.889,1.14-16.176c0.006,0.01,0.008,0.016,0.009,0.024c0.307-2.178,0.679-4.338,1.107-6.48
			c0.054-0.264,0.108-0.534,0.162-0.799c0.623-3.007,1.363-5.967,2.214-8.876c0.133-0.461,0.268-0.913,0.408-1.366
			c0.37-1.217,0.767-2.424,1.175-3.623c0.245-0.718,0.489-1.438,0.748-2.151c0.256-0.697,0.527-1.385,0.793-2.077
			c0.268-0.696,0.543-1.388,0.826-2.075c0.245-0.604,0.488-1.209,0.747-1.803c0.51-1.185,1.036-2.359,1.583-3.518
			c0.215-0.457,0.439-0.908,0.658-1.357c0.458-0.944,0.927-1.879,1.412-2.809c0.19-0.367,0.379-0.737,0.575-1.104
			c0.677-1.264,1.373-2.514,2.096-3.749c0.126-0.217,0.257-0.434,0.386-0.646c0.685-1.156,1.39-2.299,2.113-3.427
			c0.112-0.176,0.222-0.356,0.335-0.528c0.853-1.314,1.727-2.613,2.632-3.888c0.01-0.015,0.024-0.029,0.033-0.046
			c0.921-1.297,1.87-2.578,2.841-3.833c0.038-0.05,0.073-0.098,0.112-0.145c0.991-1.278,2.007-2.54,3.05-3.773h-0.003
			c9.151-10.839,20.262-19.966,32.8-26.825c-9.231-7.886-13.444-23.294-9.99-37.813c5.17-21.742,15.241-43.196,15.241-43.196
			S57.777,149.609,46.862,202.888"/>
	</defs>
	<clipPath id="SVGID_2_">
		<use xlink:href="#SVGID_1_"  overflow="visible"/>
	</clipPath>
	
		<linearGradient id="SVGID_3_" gradientUnits="userSpaceOnUse" x1="0.1929" y1="842.5464" x2="1.1924" y2="842.5464" gradientTransform="matrix(103.546 -179.347 -179.347 -103.546 151103.2656 87574.0234)">
		<stop  offset="0" style="stop-color:#D31518"/>
		<stop  offset="0.1387" style="stop-color:#D52518"/>
		<stop  offset="0.3819" style="stop-color:#DB4319"/>
		<stop  offset="0.6984" style="stop-color:#E77019"/>
		<stop  offset="1" style="stop-color:#F59C16"/>
	</linearGradient>
	<polygon clip-path="url(#SVGID_2_)" fill="url(#SVGID_3_)" points="-83.483,268.43 32.229,68.012 204.67,167.572 88.959,367.99 	
		"/>
</g>
<g>
	<defs>
		<path id="SVGID_4_" d="M277.908,47.52c4.104,34.154,22.124,53.69-1.052,73.024c-23.174,19.329-43.133,19.348-58.453,10.819
			c-23.154-12.882-10.335-55.203-10.335-55.203s-34.692-1.182-45.577,37.013c-7.097,24.921-7.555,54.242-14.54,72.558
			c6.273-1.055,12.707-1.637,19.279-1.637c63.573,0,115.108,51.536,115.108,115.108c0,14.375-2.646,28.129-7.464,40.817
			c-0.037-2.627-0.718-5.171-2.218-7.496c-7.023-10.883-10.974-13.241-10.974-13.241s-0.253,14.539-8.454,22.317
			c-8.2,7.778-23.353,7.744-31.3,0.979c-7.945-6.764-9.59-23.712,1.069-31.346c10.661-7.634,27.03-8.037,31.079-26.357
			c4.051-18.317-22.907-15.809-25.986-24.334c-3.074-8.522,6.674-28.208,6.674-28.208s-25.497,3.701-23.434,20.844
			c2.058,17.144,11.104,26.955-0.529,36.656c-11.634,9.706-21.652,9.713-29.343,5.435c-11.624-6.469-5.19-27.711-5.19-27.711
			s-17.417-0.592-22.878,18.578c-5.461,19.173-3.084,43.542-16.693,45.244c-10.2,1.279-16.232-10.653-13.634-21.566
			c2.596-10.915,7.651-21.685,7.651-21.685s-29.894,16.298-35.371,43.046c-5.486,26.746,3.63,55.795,31.314,74.351
			c27.684,18.562,66.352,35.961,101.147,25.754c14.871-4.363,25.947-11.954,32.488-23.115c16.985,0.688,33.933-1.019,50.441-5.859
			c30.362-8.908,52.809-24.547,65.702-47.706c12.878-23.149,13.589-43.969,13.589-43.969s-27.389,30.447-44.327,21.485
			c-16.941-8.96,2.479-48.179,24.595-60.959c22.112-12.78,43.771-43.902,29.782-65.575c-13.995-21.675-21.865-26.376-21.865-26.376
			s-0.505,28.971-16.836,44.46c-16.339,15.492-46.519,15.422-62.348,1.947c-15.828-13.475-19.11-47.24,2.131-62.445
			c21.233-15.203,53.839-16.012,61.907-52.504c8.069-36.49-45.633-31.494-51.764-48.472c-6.133-16.974,13.291-56.196,13.291-56.196
			S273.803,13.366,277.908,47.52"/>
	</defs>
	<clipPath id="SVGID_5_">
		<use xlink:href="#SVGID_4_"  overflow="visible"/>
	</clipPath>
	
		<linearGradient id="SVGID_6_" gradientUnits="userSpaceOnUse" x1="0.0894" y1="842.2231" x2="1.0894" y2="842.2231" gradientTransform="matrix(222.7426 -385.8015 -385.8015 -222.7426 325053 188048.7031)">
		<stop  offset="0" style="stop-color:#D31518"/>
		<stop  offset="0.1387" style="stop-color:#D52518"/>
		<stop  offset="0.3819" style="stop-color:#DB4319"/>
		<stop  offset="0.6984" style="stop-color:#E77019"/>
		<stop  offset="1" style="stop-color:#F59C16"/>
	</linearGradient>
	<polygon clip-path="url(#SVGID_5_)" fill="url(#SVGID_6_)" points="-98.715,332.612 170.91,-134.393 602.638,114.865 
		333.013,581.87 	"/>
</g>
</svg>
