<?xml version="1.0" standalone="no"?><!DOCTYPE svg PUBLIC "-//W3C//DTD SVG 1.1//EN" "http://www.w3.org/Graphics/SVG/1.1/DTD/svg11.dtd"><svg width="100%" height="100%" viewBox="0 0 1024 350" version="1.1" xmlns="http://www.w3.org/2000/svg" xmlns:xlink="http://www.w3.org/1999/xlink" xml:space="preserve" style="fill-rule:evenodd;clip-rule:evenodd;stroke-linejoin:round;stroke-miterlimit:1.41421;"><g id="Layer1"><path d="M85.969,75.063c-21.019,0 -37.696,17.362 -37.696,38.149c0,22.389 14.851,41.353 38.151,41.353c22.619,0 36.555,-18.277 36.555,-39.981c0,-21.476 -14.851,-39.521 -37.01,-39.521M147.883,142c-9.827,25.129 -30.159,40.436 -57.574,40.436c-18.505,0 -30.614,-5.712 -42.723,-19.421l0,15.309l-27.871,0l0,-169.06l30.385,0l0,53.688c10.282,-10.282 24.902,-15.764 39.525,-15.764c36.78,0 63.738,31.528 63.738,67.167c0,9.369 -2.055,18.961 -5.48,27.645" style="fill:#d81f26;fill-rule:nonzero;"/><path d="M229.445,75.063c-22.617,0 -37.696,18.73 -37.696,40.434c0,21.245 15.992,39.068 37.696,39.068c22.619,0 37.011,-18.277 37.011,-39.981c0,-21.705 -14.622,-39.521 -37.011,-39.521M267.37,178.324l0,-15.764c-10.053,11.879 -28.784,19.876 -44.32,19.876c-38.155,0 -61.688,-32.213 -61.688,-68.311c0,-36.322 26.044,-66.937 63.515,-66.937c13.937,0 27.187,5.712 37.468,15.079c1.369,1.37 3.426,3.425 4.568,5.255l0.457,0l0,-15.994l27.872,0l0,126.796l-27.872,0Z" style="fill:#d81f26;fill-rule:nonzero;"/><path d="M346.193,107.043l0,71.281l-30.388,0l0,-126.796l27.873,0l0,11.194l0.456,0c8.456,-12.336 14.623,-15.534 29.702,-15.534l0,29.473c-19.876,0.683 -27.643,11.878 -27.643,30.382" style="fill:#d81f26;fill-rule:nonzero;"/><path d="M449.307,181.294c-36.779,0 -67.165,-28.101 -67.165,-65.341c0,-36.781 30.615,-65.793 67.165,-65.793c27.188,0 51.864,15.306 62.141,40.893l-17.593,0c-8.68,-16.447 -25.355,-26.499 -44.091,-26.499c-28.555,0 -51.632,22.159 -51.632,50.943c0,29.016 22.618,51.405 51.632,51.405c18.508,0 35.411,-8.682 44.091,-25.359l17.593,0c-12.79,25.129 -33.124,39.751 -62.141,39.751" style="fill:#d81f26;fill-rule:nonzero;"/><path d="M588.217,64.554c-29.7,0 -51.176,22.159 -51.176,51.628c0,29.244 21.933,50.72 51.176,50.72c28.331,0 50.035,-23.072 50.035,-50.948c0,-27.875 -21.704,-51.4 -50.035,-51.4M637.335,178.326l0,-21.932l-0.457,0c-10.967,16.449 -29.243,24.9 -48.661,24.9c-37.468,0 -67.166,-28.101 -67.166,-65.797c0,-37.464 30.382,-65.336 67.166,-65.336c19.647,0 37.924,8.223 48.661,25.13l0.457,0l0,-21.936l15.994,0l0,124.971l-15.994,0Z" style="fill:#d81f26;fill-rule:nonzero;"/><path d="M841.587,178.324l0,-72.422c0,-22.163 -9.371,-41.35 -34.041,-41.35c-24.673,0 -34.042,19.187 -34.042,41.35l0,72.422l-15.994,0l0,-72.422c0,-22.163 -9.365,-41.35 -34.041,-41.35c-24.673,0 -34.039,19.187 -34.039,41.35l0,72.422l-15.993,0l0,-124.97l15.993,0l0,14.395c7.542,-11.881 20.334,-17.589 34.039,-17.589c17.82,0 33.358,8.448 42.042,23.986c9.593,-15.306 23.753,-23.986 42.035,-23.986c31.982,0 50.031,23.3 50.031,53.913l0,74.251l-15.99,0Z" style="fill:#d81f26;fill-rule:nonzero;"/><path d="M941,64.554c-28.332,0 -50.034,23.525 -50.034,51.4c0,27.876 21.702,50.948 50.034,50.948c29.244,0 51.175,-21.476 51.175,-50.72c0,-29.469 -21.479,-51.628 -51.175,-51.628M941,181.294c-19.422,0 -37.701,-8.91 -48.666,-24.9l-0.455,0l0,65.797l-15.99,0l0,-168.836l15.99,0l0,21.936l0.455,0c11.424,-16.22 29.014,-25.13 48.666,-25.13c36.781,0 67.167,27.872 67.167,65.336c0,37.696 -29.701,65.797 -67.167,65.797" style="fill:#d81f26;fill-rule:nonzero;"/><g><path d="M17.698,259.426l0,69.226l6.721,0l0,-33.547l41.908,0l0,33.547l6.721,0l0,-69.226l-6.721,0l0,30.056l-41.908,0l0,-30.056l-6.721,0Z" style="fill:#fff;fill-rule:nonzero;"/><path d="M90.245,294.039c0,-3.814 0.512,-7.53 1.534,-11.15c1.021,-3.619 2.602,-6.869 4.744,-9.745c2.141,-2.876 4.891,-5.186 8.251,-6.931c3.361,-1.745 7.38,-2.618 12.059,-2.618c4.678,0 8.682,0.873 12.01,2.618c3.327,1.745 6.062,4.055 8.203,6.931c2.142,2.876 3.723,6.126 4.744,9.745c1.022,3.62 1.531,7.336 1.531,11.15c0,3.749 -0.509,7.448 -1.531,11.1c-1.021,3.652 -2.602,6.916 -4.744,9.792c-2.141,2.877 -4.876,5.189 -8.203,6.934c-3.328,1.745 -7.332,2.617 -12.01,2.617c-4.679,0 -8.698,-0.872 -12.059,-2.617c-3.36,-1.745 -6.11,-4.057 -8.251,-6.934c-2.142,-2.876 -3.723,-6.14 -4.744,-9.792c-1.022,-3.652 -1.534,-7.351 -1.534,-11.1ZM83.524,294.039c0,4.783 0.692,9.34 2.076,13.67c1.384,4.331 3.459,8.145 6.227,11.441c2.767,3.296 6.244,5.929 10.428,7.901c4.184,1.971 9.043,2.958 14.578,2.958c5.534,0 10.378,-0.987 14.529,-2.958c4.151,-1.972 7.61,-4.605 10.378,-7.901c2.767,-3.296 4.843,-7.11 6.226,-11.441c1.384,-4.33 2.076,-8.887 2.076,-13.67c0,-4.783 -0.692,-9.34 -2.076,-13.671c-1.383,-4.33 -3.459,-8.161 -6.226,-11.49c-2.768,-3.329 -6.227,-5.979 -10.378,-7.95c-4.151,-1.972 -8.995,-2.956 -14.529,-2.956c-5.535,0 -10.394,0.984 -14.578,2.956c-4.184,1.971 -7.661,4.621 -10.428,7.95c-2.768,3.329 -4.843,7.16 -6.227,11.49c-1.384,4.331 -2.076,8.888 -2.076,13.671Z" style="fill:#fff;fill-rule:nonzero;"/><path d="M160.42,259.426l0,69.226l6.721,0l0,-58.561l0.198,0l41.116,58.561l7.512,0l0,-69.226l-6.721,0l0,58.561l-0.198,0l-41.116,-58.561l-7.512,0Z" style="fill:#fff;fill-rule:nonzero;"/><path d="M290.391,328.652l0,-35.195l-29.947,0l0,5.623l24.017,0c0.066,3.685 -0.428,7.078 -1.482,10.181c-1.055,3.102 -2.636,5.785 -4.745,8.047c-2.108,2.262 -4.693,4.022 -7.757,5.283c-3.064,1.26 -6.541,1.891 -10.429,1.891c-4.678,0 -8.697,-0.872 -12.058,-2.617c-3.36,-1.745 -6.11,-4.057 -8.252,-6.934c-2.141,-2.876 -3.722,-6.14 -4.744,-9.792c-1.021,-3.652 -1.533,-7.351 -1.533,-11.1c0,-3.814 0.512,-7.53 1.533,-11.15c1.022,-3.619 2.603,-6.869 4.744,-9.745c2.142,-2.876 4.892,-5.186 8.252,-6.931c3.361,-1.745 7.38,-2.618 12.058,-2.618c3.361,0 6.392,0.532 9.093,1.599c2.702,1.066 5.026,2.441 6.97,4.122c1.943,1.68 3.492,3.537 4.645,5.573c1.153,2.036 1.827,4.057 2.025,6.061l6.721,0c-0.659,-3.813 -1.878,-7.142 -3.657,-9.986c-1.779,-2.844 -3.954,-5.236 -6.523,-7.175c-2.57,-1.939 -5.502,-3.393 -8.797,-4.363c-3.295,-0.969 -6.787,-1.454 -10.477,-1.454c-5.535,0 -10.393,0.984 -14.577,2.956c-4.184,1.971 -7.661,4.621 -10.429,7.95c-2.767,3.329 -4.843,7.16 -6.226,11.49c-1.384,4.331 -2.076,8.888 -2.076,13.671c0,4.783 0.692,9.34 2.076,13.67c1.383,4.331 3.459,8.145 6.226,11.441c2.768,3.296 6.245,5.929 10.429,7.901c4.184,1.971 9.042,2.958 14.577,2.958c2.57,0 5.059,-0.259 7.464,-0.776c2.405,-0.517 4.66,-1.342 6.769,-2.473c2.108,-1.131 4.037,-2.586 5.783,-4.363c1.746,-1.778 3.211,-3.893 4.397,-6.35l0.198,0l0.889,12.605l4.843,0Z" style="fill:#fff;fill-rule:nonzero;"/><path d="M330.816,259.426l0,69.226l6.721,0l0,-23.754l13.541,-12.313l29.354,36.067l8.698,0l-33.012,-40.624l31.53,-28.602l-9.093,0l-41.018,37.231l0,-37.231l-6.721,0Z" style="fill:#fff;fill-rule:nonzero;"/><path d="M397.828,294.039c0,-3.814 0.512,-7.53 1.533,-11.15c1.021,-3.619 2.603,-6.869 4.744,-9.745c2.142,-2.876 4.892,-5.186 8.252,-6.931c3.361,-1.745 7.38,-2.618 12.071,-2.618c4.663,0 8.667,0.873 11.987,2.618c3.345,1.745 6.082,4.055 8.211,6.931c2.154,2.876 3.726,6.126 4.739,9.745c1.039,3.62 1.546,7.336 1.546,11.15c0,3.749 -0.507,7.448 -1.546,11.1c-1.013,3.652 -2.585,6.916 -4.739,9.792c-2.129,2.877 -4.866,5.189 -8.211,6.934c-3.32,1.745 -7.324,2.617 -11.987,2.617c-4.691,0 -8.71,-0.872 -12.071,-2.617c-3.36,-1.745 -6.11,-4.057 -8.252,-6.934c-2.141,-2.876 -3.723,-6.14 -4.744,-9.792c-1.021,-3.652 -1.533,-7.351 -1.533,-11.1ZM391.107,294.039c0,4.783 0.692,9.34 2.076,13.67c1.383,4.331 3.459,8.145 6.226,11.441c2.768,3.296 6.245,5.929 10.429,7.901c4.184,1.971 9.042,2.958 14.59,2.958c5.525,0 10.365,-0.987 14.521,-2.958c4.157,-1.972 7.603,-4.605 10.366,-7.901c2.762,-3.296 4.84,-7.11 6.234,-11.441c1.394,-4.33 2.078,-8.887 2.078,-13.67c0,-4.783 -0.684,-9.34 -2.078,-13.671c-1.394,-4.33 -3.472,-8.161 -6.234,-11.49c-2.763,-3.329 -6.209,-5.979 -10.366,-7.95c-4.156,-1.972 -8.996,-2.956 -14.521,-2.956c-5.548,0 -10.406,0.984 -14.59,2.956c-4.184,1.971 -7.661,4.621 -10.429,7.95c-2.767,3.329 -4.843,7.16 -6.226,11.49c-1.384,4.331 -2.076,8.888 -2.076,13.671Z" style="fill:#fff;fill-rule:nonzero;"/><path d="M467.992,259.426l0,69.226l6.742,0l0,-58.561l0.177,0l41.132,58.561l7.501,0l0,-69.226l-6.716,0l0,58.561l-0.202,0l-41.107,-58.561l-7.527,0Z" style="fill:#fff;fill-rule:nonzero;"/><path d="M597.977,328.652l0,-35.195l-29.956,0l0,5.623l24.025,0c0.076,3.685 -0.431,7.078 -1.495,10.181c-1.039,3.102 -2.636,5.785 -4.739,8.047c-2.104,2.262 -4.688,4.022 -7.755,5.283c-3.066,1.26 -6.538,1.891 -10.416,1.891c-4.688,0 -8.718,-0.872 -12.063,-2.617c-3.371,-1.745 -6.108,-4.057 -8.262,-6.934c-2.129,-2.876 -3.725,-6.14 -4.739,-9.792c-1.014,-3.652 -1.521,-7.351 -1.521,-11.1c0,-3.814 0.507,-7.53 1.521,-11.15c1.014,-3.619 2.61,-6.869 4.739,-9.745c2.154,-2.876 4.891,-5.186 8.262,-6.931c3.345,-1.745 7.375,-2.618 12.063,-2.618c3.345,0 6.386,0.532 9.073,1.599c2.712,1.066 5.043,2.441 6.969,4.122c1.952,1.68 3.497,3.537 4.663,5.573c1.141,2.036 1.825,4.057 2.028,6.061l6.716,0c-0.659,-3.813 -1.876,-7.142 -3.65,-9.986c-1.799,-2.844 -3.979,-5.236 -6.538,-7.175c-2.56,-1.939 -5.5,-3.393 -8.794,-4.363c-3.295,-0.969 -6.792,-1.454 -10.467,-1.454c-5.55,0 -10.391,0.984 -14.598,2.956c-4.181,1.971 -7.653,4.621 -10.415,7.95c-2.763,3.329 -4.841,7.16 -6.235,11.49c-1.368,4.331 -2.078,8.888 -2.078,13.671c0,4.783 0.71,9.34 2.078,13.67c1.394,4.331 3.472,8.145 6.235,11.441c2.762,3.296 6.234,5.929 10.415,7.901c4.207,1.971 9.048,2.958 14.598,2.958c2.56,0 5.043,-0.259 7.451,-0.776c2.407,-0.517 4.663,-1.342 6.766,-2.473c2.104,-1.131 4.055,-2.586 5.779,-4.363c1.748,-1.778 3.218,-3.893 4.409,-6.35l0.203,0l0.887,12.605l4.841,0Z" style="fill:#fff;fill-rule:nonzero;"/></g><g><path d="M776.716,283.218l8.784,0c-0.068,-2.132 0.155,-4.248 0.672,-6.348c0.517,-2.099 1.361,-3.982 2.532,-5.648c1.171,-1.666 2.67,-3.015 4.496,-4.048c1.825,-1.033 4.013,-1.55 6.562,-1.55c1.929,0 3.755,0.3 5.477,0.9c1.722,0.6 3.221,1.466 4.496,2.599c1.274,1.133 2.29,2.483 3.048,4.049c0.758,1.566 1.137,3.315 1.137,5.248c0,2.466 -0.396,4.632 -1.188,6.498c-0.793,1.866 -1.964,3.599 -3.514,5.198c-1.55,1.599 -3.497,3.182 -5.839,4.748c-2.343,1.567 -5.064,3.283 -8.164,5.149c-2.549,1.466 -4.995,3.032 -7.338,4.698c-2.342,1.666 -4.443,3.599 -6.304,5.798c-1.86,2.199 -3.393,4.782 -4.598,7.748c-1.206,2.965 -1.981,6.547 -2.326,10.746l47.848,0l0,-7.498l-37.617,0c0.414,-2.199 1.292,-4.148 2.636,-5.848c1.343,-1.699 2.962,-3.282 4.857,-4.748c1.894,-1.466 3.979,-2.849 6.252,-4.149c2.274,-1.299 4.547,-2.615 6.821,-3.948c2.273,-1.4 4.478,-2.866 6.614,-4.399c2.136,-1.533 4.03,-3.249 5.684,-5.148c1.653,-1.899 2.979,-4.049 3.978,-6.448c0.999,-2.399 1.499,-5.165 1.499,-8.297c0,-3.332 -0.603,-6.265 -1.809,-8.797c-1.205,-2.533 -2.842,-4.649 -4.908,-6.348c-2.067,-1.699 -4.496,-2.999 -7.286,-3.899c-2.79,-0.899 -5.77,-1.349 -8.939,-1.349c-3.859,0 -7.303,0.633 -10.335,1.899c-3.031,1.266 -5.563,3.016 -7.596,5.248c-2.032,2.233 -3.53,4.882 -4.495,7.948c-0.965,3.065 -1.343,6.397 -1.137,9.996Z" style="fill:#fff;fill-rule:nonzero;"/><path d="M843.27,294.115c0,-1.733 0.017,-3.649 0.051,-5.748c0.035,-2.1 0.207,-4.199 0.517,-6.298c0.31,-2.1 0.758,-4.149 1.343,-6.148c0.586,-2 1.447,-3.749 2.584,-5.249c1.137,-1.499 2.566,-2.715 4.289,-3.648c1.722,-0.933 3.824,-1.4 6.304,-1.4c2.48,0 4.581,0.467 6.304,1.4c1.722,0.933 3.152,2.149 4.289,3.648c1.136,1.5 1.997,3.249 2.583,5.249c0.586,1.999 1.034,4.048 1.344,6.148c0.31,2.099 0.482,4.198 0.516,6.298c0.035,2.099 0.052,4.015 0.052,5.748c0,2.665 -0.086,5.648 -0.258,8.947c-0.173,3.299 -0.724,6.397 -1.654,9.296c-0.93,2.9 -2.428,5.349 -4.495,7.348c-2.067,1.999 -4.961,2.999 -8.681,2.999c-3.721,0 -6.614,-1 -8.681,-2.999c-2.067,-1.999 -3.565,-4.448 -4.496,-7.348c-0.93,-2.899 -1.481,-5.997 -1.653,-9.296c-0.172,-3.299 -0.258,-6.282 -0.258,-8.947ZM833.969,294.215c0,2.599 0.069,5.298 0.206,8.097c0.138,2.799 0.483,5.531 1.034,8.197c0.551,2.666 1.343,5.182 2.377,7.548c1.033,2.365 2.445,4.448 4.237,6.247c1.791,1.8 4.047,3.216 6.769,4.249c2.721,1.033 5.976,1.55 9.766,1.55c3.858,0 7.13,-0.517 9.817,-1.55c2.687,-1.033 4.926,-2.449 6.718,-4.249c1.791,-1.799 3.203,-3.882 4.237,-6.247c1.033,-2.366 1.826,-4.882 2.377,-7.548c0.551,-2.666 0.895,-5.398 1.033,-8.197c0.138,-2.799 0.207,-5.498 0.207,-8.097c0,-2.6 -0.069,-5.299 -0.207,-8.098c-0.138,-2.799 -0.482,-5.531 -1.033,-8.197c-0.551,-2.666 -1.344,-5.198 -2.377,-7.597c-1.034,-2.4 -2.446,-4.499 -4.237,-6.298c-1.792,-1.8 -4.048,-3.233 -6.769,-4.299c-2.722,-1.066 -5.977,-1.599 -9.766,-1.599c-3.79,0 -7.045,0.533 -9.766,1.599c-2.722,1.066 -4.978,2.499 -6.769,4.299c-1.792,1.799 -3.204,3.898 -4.237,6.298c-1.034,2.399 -1.826,4.931 -2.377,7.597c-0.551,2.666 -0.896,5.398 -1.034,8.197c-0.137,2.799 -0.206,5.498 -0.206,8.098Z" style="fill:#fff;fill-rule:nonzero;"/><path d="M923.878,329.003l0,-70.876l-6.718,0c-0.482,2.665 -1.378,4.865 -2.687,6.597c-1.309,1.733 -2.91,3.099 -4.805,4.099c-1.895,1 -4.013,1.683 -6.356,2.049c-2.342,0.367 -4.754,0.55 -7.234,0.55l0,6.798l19.015,0l0,50.783l8.785,0Z" style="fill:#fff;fill-rule:nonzero;"/><path d="M993.118,266.824l0,-7.498l-36.17,0l-6.821,36.788l7.544,0.4c1.723,-2 3.703,-3.616 5.942,-4.849c2.239,-1.232 4.806,-1.849 7.699,-1.849c2.481,0 4.737,0.4 6.769,1.2c2.033,0.799 3.773,1.916 5.219,3.349c1.447,1.432 2.567,3.132 3.359,5.098c0.792,1.966 1.188,4.115 1.188,6.448c0,2.799 -0.413,5.248 -1.24,7.347c-0.826,2.099 -1.946,3.849 -3.358,5.248c-1.413,1.4 -3.066,2.45 -4.961,3.149c-1.894,0.7 -3.875,1.05 -5.942,1.05c-2.205,0 -4.22,-0.317 -6.046,-0.95c-1.825,-0.633 -3.41,-1.532 -4.754,-2.699c-1.343,-1.166 -2.411,-2.532 -3.203,-4.098c-0.792,-1.567 -1.258,-3.249 -1.395,-5.049l-8.785,0c0.069,3.199 0.724,6.065 1.964,8.597c1.24,2.533 2.928,4.649 5.064,6.348c2.136,1.7 4.599,2.999 7.389,3.899c2.79,0.9 5.77,1.35 8.939,1.35c4.272,0 8.009,-0.65 11.213,-1.95c3.204,-1.299 5.873,-3.049 8.009,-5.248c2.136,-2.199 3.738,-4.715 4.806,-7.548c1.082,-2.832 1.599,-5.748 1.599,-8.747c0,-4.065 -0.632,-7.614 -1.858,-10.646c-1.24,-3.032 -2.928,-5.565 -5.064,-7.597c-2.135,-2.033 -4.65,-3.549 -7.544,-4.549c-2.893,-1 -5.959,-1.499 -9.197,-1.499c-2.481,0 -4.978,0.416 -7.493,1.249c-2.514,0.833 -4.564,2.116 -6.149,3.849l-0.206,-0.2l3.927,-20.393l29.556,0Z" style="fill:#fff;fill-rule:nonzero;"/></g><g><path d="M690.877,268.649l-1.63,2.556l-0.61,-3.006l-2.922,-0.734l2.639,-1.504l-0.167,-3.009l2.202,2.03l2.844,-1.094l-1.269,2.77l1.922,2.309l-3.009,-0.318ZM704.009,247.783c-26.902,-1.855 -39.789,33.744 -13.926,47.001c-2.652,-2.113 -4.714,-5.28 -5.708,-9.058c-1.471,-5.329 -0.662,-11.062 2.274,-15.74l0.604,0.403c-2.806,4.478 -3.627,10.008 -2.191,15.17c1.041,3.831 3.252,7.105 6.075,9.102c-4.76,-5.175 -2.866,-13.56 4.5,-16.905c4.835,-2.156 8.782,-11.144 5.162,-16.716c-3.178,-5.004 -2.362,-10.369 3.21,-13.257" style="fill:#d81f26;"/><path d="M663.295,293.489l-0.561,-2.967l-2.967,-0.729l2.639,-1.509l-0.158,-3.008l2.231,2.037l2.808,-1.097l-1.257,2.759l1.908,2.323l-3.009,-0.326l-1.634,2.517ZM680.259,300.445c-5.523,-0.241 -10.694,-2.806 -14.229,-7.034l0.535,-0.491c3.41,4.108 8.407,6.591 13.736,6.838c3.949,0.167 7.763,-0.929 10.516,-2.966c-6.395,2.895 -13.761,-1.516 -14.619,-9.522c-0.615,-5.286 -7.935,-11.794 -14.311,-10.089c-5.744,1.511 -10.618,-0.93 -11.637,-7.153c-10.083,25.077 19.868,48.336 40.484,27.711c-2.853,1.908 -6.526,2.902 -10.475,2.706" style="fill:#d81f26;"/><path d="M678.146,322.532l-1.623,2.559l-0.615,-3.009l-2.926,-0.733l2.641,-1.505l-0.154,-3.009l2.227,2.033l2.806,-1.097l-1.255,2.766l1.908,2.314l-3.009,-0.319ZM693.611,297.977c0.997,3.321 0.807,7.17 -0.579,10.888c-1.955,5.207 -6.022,9.35 -11.144,11.387l-0.243,-0.651c4.921,-1.995 8.822,-5.98 10.7,-10.979c1.373,-3.706 1.516,-7.631 0.451,-10.912c0.74,7.005 -5.726,12.642 -13.596,10.99c-5.2,-1.094 -13.654,3.867 -14.021,10.493c-0.332,5.898 -4.15,9.805 -10.375,8.829c20.761,17.384 52.189,-4.003 38.807,-30.045" style="fill:#d81f26;"/><path d="M712.264,319.684l-1.622,2.556l-0.616,-2.964l-2.926,-0.736l2.641,-1.504l-0.2,-3.007l2.237,2.037l2.849,-1.103l-1.297,2.766l1.948,2.316l-3.014,-0.361ZM694.797,295.437c3.457,0.089 7.052,1.444 10.148,3.913c4.353,3.457 7.034,8.615 7.408,14.111l-0.74,0.04c-0.332,-5.287 -2.926,-10.248 -7.118,-13.582c-3.078,-2.459 -6.763,-3.807 -10.202,-3.789c6.845,1.437 10.226,9.35 6.223,16.312c-2.641,4.636 -0.532,14.193 5.648,16.596c5.532,2.151 8.012,6.952 5.164,12.602c22.981,-14.376 12.341,-50.904 -16.531,-46.203" style="fill:#d81f26;"/><path d="M720.114,286.419l-1.623,2.559l-0.615,-3.003l-2.926,-0.735l2.641,-1.509l-0.165,-3.009l2.202,2.031l2.842,-1.095l-1.262,2.766l1.915,2.32l-3.009,-0.325ZM692.782,293.317c1.184,-3.185 3.575,-6.116 6.832,-8.242c4.595,-3.049 10.328,-4.021 15.661,-2.681l-0.171,0.691c-5.162,-1.302 -10.645,-0.366 -15.123,2.605c-3.314,2.151 -5.743,5.3 -6.784,8.61c3.446,-6.169 12.031,-6.952 17.485,-0.972c3.57,3.945 13.292,4.881 17.527,-0.243c3.742,-4.6 9.1,-5.487 13.576,-1.012c-6.595,-26.199 -44.409,-27.474 -49.003,1.244" style="fill:#d81f26;"/></g></g></svg>