<?xml version="1.0" encoding="utf-8"?>
<!-- Generator: Adobe Illustrator 19.1.0, SVG Export Plug-In . SVG Version: 6.00 Build 0)  -->
<svg version="1.1" id="Layer_1" xmlns="http://www.w3.org/2000/svg" xmlns:xlink="http://www.w3.org/1999/xlink" x="0px" y="0px"
	 viewBox="0 0 400 400" enable-background="new 0 0 400 400" xml:space="preserve">
<g>
	<g>
		<defs>
			<path id="SVGID_1_" d="M133,192.7c-1.3,6.1-1.6,12.4-1,18.6c-0.5,0.8-1.3,1.2-2.2,1.4c-3.3,0.4-5.2-3.4-4.3-6.9
				c0.8-3.5,2.4-6.9,2.4-6.9s-9.5,5.2-11.3,13.7c-1.8,8.5,1.2,17.8,10,23.7c2.8,1.9,6,3.7,9.3,5.3c-0.5-2.7-0.7-5.5-0.7-8.3
				c0-2.3,0.2-4.6,0.5-6.8c0,0,0,0,0,0c0.1-0.9,0.3-1.8,0.5-2.7c0-0.1,0-0.2,0.1-0.3c0.3-1.3,0.6-2.5,0.9-3.7
				c0.1-0.2,0.1-0.4,0.2-0.6c0.2-0.5,0.3-1,0.5-1.5c0.1-0.3,0.2-0.6,0.3-0.9c0.1-0.3,0.2-0.6,0.3-0.9c0.1-0.3,0.2-0.6,0.3-0.9
				c0.1-0.3,0.2-0.5,0.3-0.8c0.2-0.5,0.4-1,0.7-1.5c0.1-0.2,0.2-0.4,0.3-0.6c0.2-0.4,0.4-0.8,0.6-1.2c0.1-0.2,0.2-0.3,0.2-0.5
				c0.3-0.5,0.6-1.1,0.9-1.6c0.1-0.1,0.1-0.2,0.2-0.3c0.3-0.5,0.6-1,0.9-1.4c0.1-0.1,0.1-0.1,0.1-0.2c0.4-0.6,0.7-1.1,1.1-1.6
				c0,0,0,0,0,0c0.4-0.5,0.8-1.1,1.2-1.6c0,0,0,0,0.1-0.1c0.4-0.5,0.8-1.1,1.3-1.6h0c3.9-4.6,8.6-8.4,13.8-11.3
				c-3.9-3.3-5.7-9.8-4.2-16c2.2-9.2,6.4-18.2,6.4-18.2S137.6,170.2,133,192.7"/>
		</defs>
		<clipPath id="SVGID_2_">
			<use xlink:href="#SVGID_1_"  overflow="visible"/>
		</clipPath>
		
			<linearGradient id="SVGID_3_" gradientUnits="userSpaceOnUse" x1="-103.7836" y1="610.894" x2="-101.7836" y2="610.894" gradientTransform="matrix(20.8587 0 0 -20.8587 2285.7937 12941.5498)">
			<stop  offset="0" style="stop-color:#E02127"/>
			<stop  offset="0.1076" style="stop-color:#E22C27"/>
			<stop  offset="0.2976" style="stop-color:#E64A28"/>
			<stop  offset="0.4258" style="stop-color:#E96229"/>
			<stop  offset="0.8084" style="stop-color:#F49F2A"/>
			<stop  offset="1" style="stop-color:#F49F2A"/>
		</linearGradient>
		<rect x="114.8" y="156.5" clip-path="url(#SVGID_2_)" fill="url(#SVGID_3_)" width="47.9" height="85.1"/>
	</g>
	<g>
		<defs>
			<path id="SVGID_4_" d="M133,192.7c-1.3,6.1-1.6,12.4-1,18.6c-0.5,0.8-1.3,1.2-2.2,1.4c-3.3,0.4-5.2-3.4-4.3-6.9
				c0.8-3.5,2.4-6.9,2.4-6.9s-9.5,5.2-11.3,13.7c-1.8,8.5,1.2,17.8,10,23.7c2.8,1.9,6,3.7,9.3,5.3c-0.5-2.7-0.7-5.5-0.7-8.3
				c0-2.3,0.2-4.6,0.5-6.8c0,0,0,0,0,0c0.1-0.9,0.3-1.8,0.5-2.7c0-0.1,0-0.2,0.1-0.3c0.3-1.3,0.6-2.5,0.9-3.7
				c0.1-0.2,0.1-0.4,0.2-0.6c0.2-0.5,0.3-1,0.5-1.5c0.1-0.3,0.2-0.6,0.3-0.9c0.1-0.3,0.2-0.6,0.3-0.9c0.1-0.3,0.2-0.6,0.3-0.9
				c0.1-0.3,0.2-0.5,0.3-0.8c0.2-0.5,0.4-1,0.7-1.5c0.1-0.2,0.2-0.4,0.3-0.6c0.2-0.4,0.4-0.8,0.6-1.2c0.1-0.2,0.2-0.3,0.2-0.5
				c0.3-0.5,0.6-1.1,0.9-1.6c0.1-0.1,0.1-0.2,0.2-0.3c0.3-0.5,0.6-1,0.9-1.4c0.1-0.1,0.1-0.1,0.1-0.2c0.4-0.6,0.7-1.1,1.1-1.6
				c0,0,0,0,0,0c0.4-0.5,0.8-1.1,1.2-1.6c0,0,0,0,0.1-0.1c0.4-0.5,0.8-1.1,1.3-1.6h0c3.9-4.6,8.6-8.4,13.8-11.3
				c-3.9-3.3-5.7-9.8-4.2-16c2.2-9.2,6.4-18.2,6.4-18.2S137.6,170.2,133,192.7"/>
		</defs>
		<clipPath id="SVGID_5_">
			<use xlink:href="#SVGID_4_"  overflow="visible"/>
		</clipPath>
		
			<linearGradient id="SVGID_6_" gradientUnits="userSpaceOnUse" x1="-102.3792" y1="620.3743" x2="-100.3792" y2="620.3743" gradientTransform="matrix(21.8494 -37.8443 37.8443 21.8494 -21121.1914 -17196.8086)">
			<stop  offset="0" style="stop-color:#E02127"/>
			<stop  offset="0.1076" style="stop-color:#E22C27"/>
			<stop  offset="0.2976" style="stop-color:#E64A28"/>
			<stop  offset="0.4258" style="stop-color:#E96229"/>
			<stop  offset="0.8084" style="stop-color:#F49F2A"/>
			<stop  offset="1" style="stop-color:#F49F2A"/>
		</linearGradient>
		<polygon clip-path="url(#SVGID_5_)" fill="url(#SVGID_6_)" points="150.8,262.4 199.6,177.8 126.8,135.8 78,220.4 		"/>
	</g>
	<g>
		<defs>
			<path id="SVGID_7_" d="M230.5,127.2c1.7,14.4,9.3,22.7-0.4,30.8c-9.8,8.2-18.2,8.2-24.7,4.6c-9.8-5.4-4.4-23.3-4.4-23.3
				s-14.6-0.5-19.2,15.6c-3,10.5-3.2,22.9-6.1,30.6c2.6-0.4,5.4-0.7,8.1-0.7c26.8,0,48.6,21.7,48.6,48.6c0,6.1-1.1,11.9-3.1,17.2
				c0-1.1-0.3-2.2-0.9-3.2c-3-4.6-4.6-5.6-4.6-5.6s-0.1,6.1-3.6,9.4c-3.5,3.3-9.9,3.3-13.2,0.4c-3.4-2.9-4-10,0.5-13.2
				c4.5-3.2,11.4-3.4,13.1-11.1c1.7-7.7-9.7-6.7-11-10.3c-1.3-3.6,2.8-11.9,2.8-11.9s-10.8,1.6-9.9,8.8c0.9,7.2,4.7,11.4-0.2,15.5
				c-4.9,4.1-9.1,4.1-12.4,2.3c-4.9-2.7-2.2-11.7-2.2-11.7s-7.3-0.2-9.7,7.8c-2.3,8.1-1.3,18.4-7,19.1c-4.3,0.5-6.8-4.5-5.8-9.1
				c1.1-4.6,3.2-9.1,3.2-9.1s-12.6,6.9-14.9,18.2c-2.3,11.3,1.5,23.5,13.2,31.4c11.7,7.8,28,15.2,42.7,10.9c6.3-1.8,10.9-5,13.7-9.8
				c7.2,0.3,14.3-0.4,21.3-2.5c12.8-3.8,22.3-10.4,27.7-20.1c5.4-9.8,5.7-18.6,5.7-18.6s-11.6,12.8-18.7,9.1
				c-7.1-3.8,1-20.3,10.4-25.7c9.3-5.4,18.5-18.5,12.6-27.7c-5.9-9.1-9.2-11.1-9.2-11.1s-0.2,12.2-7.1,18.8
				c-6.9,6.5-19.6,6.5-26.3,0.8c-6.7-5.7-8.1-19.9,0.9-26.3c9-6.4,22.7-6.8,26.1-22.2c3.4-15.4-19.3-13.3-21.8-20.5
				c-2.6-7.2,5.6-23.7,5.6-23.7S228.7,112.8,230.5,127.2"/>
		</defs>
		<clipPath id="SVGID_8_">
			<use xlink:href="#SVGID_7_"  overflow="visible"/>
		</clipPath>
		
			<linearGradient id="SVGID_9_" gradientUnits="userSpaceOnUse" x1="-98.5964" y1="617.0689" x2="-96.5964" y2="617.0689" gradientTransform="matrix(54.1454 0 0 -54.1454 5503.2603 33612.957)">
			<stop  offset="0" style="stop-color:#E02127"/>
			<stop  offset="0.1076" style="stop-color:#E22C27"/>
			<stop  offset="0.2976" style="stop-color:#E64A28"/>
			<stop  offset="0.4258" style="stop-color:#E96229"/>
			<stop  offset="0.8084" style="stop-color:#F49F2A"/>
			<stop  offset="1" style="stop-color:#F49F2A"/>
		</linearGradient>
		<rect x="151.1" y="109.6" clip-path="url(#SVGID_8_)" fill="url(#SVGID_9_)" width="136.8" height="183.7"/>
	</g>
	<g>
		<defs>
			<path id="SVGID_10_" d="M230.5,127.2c1.7,14.4,9.3,22.7-0.4,30.8c-9.8,8.2-18.2,8.2-24.7,4.6c-9.8-5.4-4.4-23.3-4.4-23.3
				s-14.6-0.5-19.2,15.6c-3,10.5-3.2,22.9-6.1,30.6c2.6-0.4,5.4-0.7,8.1-0.7c26.8,0,48.6,21.7,48.6,48.6c0,6.1-1.1,11.9-3.1,17.2
				c0-1.1-0.3-2.2-0.9-3.2c-3-4.6-4.6-5.6-4.6-5.6s-0.1,6.1-3.6,9.4c-3.5,3.3-9.9,3.3-13.2,0.4c-3.4-2.9-4-10,0.5-13.2
				c4.5-3.2,11.4-3.4,13.1-11.1c1.7-7.7-9.7-6.7-11-10.3c-1.3-3.6,2.8-11.9,2.8-11.9s-10.8,1.6-9.9,8.8c0.9,7.2,4.7,11.4-0.2,15.5
				c-4.9,4.1-9.1,4.1-12.4,2.3c-4.9-2.7-2.2-11.7-2.2-11.7s-7.3-0.2-9.7,7.8c-2.3,8.1-1.3,18.4-7,19.1c-4.3,0.5-6.8-4.5-5.8-9.1
				c1.1-4.6,3.2-9.1,3.2-9.1s-12.6,6.9-14.9,18.2c-2.3,11.3,1.5,23.5,13.2,31.4c11.7,7.8,28,15.2,42.7,10.9c6.3-1.8,10.9-5,13.7-9.8
				c7.2,0.3,14.3-0.4,21.3-2.5c12.8-3.8,22.3-10.4,27.7-20.1c5.4-9.8,5.7-18.6,5.7-18.6s-11.6,12.8-18.7,9.1
				c-7.1-3.8,1-20.3,10.4-25.7c9.3-5.4,18.5-18.5,12.6-27.7c-5.9-9.1-9.2-11.1-9.2-11.1s-0.2,12.2-7.1,18.8
				c-6.9,6.5-19.6,6.5-26.3,0.8c-6.7-5.7-8.1-19.9,0.9-26.3c9-6.4,22.7-6.8,26.1-22.2c3.4-15.4-19.3-13.3-21.8-20.5
				c-2.6-7.2,5.6-23.7,5.6-23.7S228.7,112.8,230.5,127.2"/>
		</defs>
		<clipPath id="SVGID_11_">
			<use xlink:href="#SVGID_10_"  overflow="visible"/>
		</clipPath>
		
			<linearGradient id="SVGID_12_" gradientUnits="userSpaceOnUse" x1="-99.0545" y1="621.0887" x2="-97.0553" y2="621.0887" gradientTransform="matrix(46.9898 -81.3888 81.3888 46.9898 -45722.0078 -36964.8438)">
			<stop  offset="0" style="stop-color:#E02127"/>
			<stop  offset="0.1076" style="stop-color:#E22C27"/>
			<stop  offset="0.2976" style="stop-color:#E64A28"/>
			<stop  offset="0.4258" style="stop-color:#E96229"/>
			<stop  offset="0.8084" style="stop-color:#F49F2A"/>
			<stop  offset="1" style="stop-color:#F49F2A"/>
		</linearGradient>
		<polygon clip-path="url(#SVGID_11_)" fill="url(#SVGID_12_)" points="253.7,352.6 367.5,155.6 185.3,50.4 71.6,247.4 		"/>
	</g>
</g>
</svg>
