<?xml version="1.0" encoding="utf-8"?>
<!-- Generator: Adobe Illustrator 19.1.0, SVG Export Plug-In . SVG Version: 6.00 Build 0)  -->
<svg version="1.1" id="Layer_1" xmlns="http://www.w3.org/2000/svg" xmlns:xlink="http://www.w3.org/1999/xlink" x="0px" y="0px"
	 viewBox="0 0 400 400" enable-background="new 0 0 400 400" xml:space="preserve">
<g>
	<g>
		<path fill="#231F20" d="M167.5,206.5c2.6-0.1,11.9-9.1,18.4-16.4c3.8-4.2,7-8,8.4-9.5l0.5,0.4c0,0-7.1,8.5-8.8,10.7
			c-2,2.5-13.7,16.2-18,16.3c-3.7,0.1-5.5-6.2-5.5-8c-0.3-13.1,10.4-27.9,30.1-37.7c1.9-0.9,3.6-1.5,4.7-1.5c0.8,0,1.5,0.4,1.5,1.1
			c0.1,4.2-16.1,18.7-26.3,23.9c-4,6.1-6.4,12.1-6.3,16.1C166.3,203.3,166.7,206.5,167.5,206.5 M196.9,162.6c-0.2,0-0.5,0.1-0.6,0.2
			c-8.4,4.6-16.7,13.1-22.5,21.4c15.2-9,23.6-20.1,23.6-21.3C197.3,162.6,197.1,162.6,196.9,162.6"/>
		<path fill="#231F20" d="M237.8,161.4c-5.3,6.9-30.3,29.8-30.1,41.7c0,1.3,0.7,2,1.6,2c2.4-0.1,9.5-7.3,15.7-14.1
			c4.4-4.8,8.3-9.4,9.9-11.1l0.5,0.4c0,0-7.1,8.5-8.8,10.7c-2,2.5-13.1,15.9-17.3,16c-2.7,0.1-3.5-6-3.5-7.7
			c-0.1-6.7,5.2-14.8,9.1-19.7l-0.2-0.3c-6.1,5.6-20.8,21.2-27.1,26.1c-0.2,0.2-0.4,0.2-0.6,0.2c-1.2,0-1.7-2.5-1.7-3.4
			c-0.4-18.6,25.1-40.7,42.7-41c1.5,0,1.8,0.9,1.9,2c0,0.8-0.2,1.6-0.3,2.3c2-1.7,6.3-5.6,7.1-5.6
			C237.3,159.9,237.8,160.8,237.8,161.4 M227.1,162.7c-8.7,0.2-34.5,22.4-39.6,39.4c-0.1,0.5-0.2,0.8-0.2,1c0,0.2,0.1,0.3,0.2,0.3
			c0.2,0,0.5-0.2,0.8-0.4c14.3-13.8,28.5-27.8,39.8-36.9c0.3-0.9,0.3-1.5,0.3-2C228.4,162.9,227.9,162.6,227.1,162.7"/>
		<path fill="#231F20" d="M272.7,162.5l-0.9,0.2c-10.1,5.7-33,32.4-32.8,39.8c0,1.3,0.7,2,1.6,2c2.4,0,9.5-7.3,15.7-14.1
			c4.4-4.8,8.3-9.4,9.9-11.1l0.5,0.4c0,0-7.1,8.5-8.8,10.7c-2,2.5-13.1,15.9-17.3,16c-2.6,0-3.9-2.1-4-5.5
			c-0.2-9.3,9.1-27.8,30.2-37c-6.2,1.6-11.7,3.4-15.8,3.5c-0.7,0-1.3,0-1.9,0c-5.1,4.1-10.7,9.5-18.2,18.3c-1.8,2.2-3.6,4.4-4.4,5.4
			l-1.6,0l5.2-5.8c2.2-2.5,4.3-4.9,6.4-7.1c4-4.2,7.8-8,11.1-10.9c-2.7-0.7-3.2-2.4-3.3-4c-0.1-4.5,7-9.3,11.2-9.4
			c-2.7,2.5-3.8,4.5-3.7,5.8c0.1,2.7,4.4,3.5,9.4,3.4c3.9-0.1,8.3-0.7,11.4-1.4L272.7,162.5z"/>
		<path fill="#231F20" d="M306.4,180.3c1,0,2,0,3,0.2c10.3-8.4,22-14.1,30.7-14.3c7.6-0.1,13,4,13.2,14.1
			c0.3,15-16.4,31.9-34.1,39.9c-6.6,7.7-15.5,12.8-22.5,13c-8.2,0.2-11.7-4.8-11.9-11.9l0-0.1c-6.9-3.6-12-9.7-12.1-18
			c-0.4-19.1,26.9-36,26.8-39.6c0-1-0.6-1.3-1.2-1.3c-5,0.1-29.4,20.1-46.3,42.5c0,0-0.5-0.1-0.5-1c5.6-13.6,22.4-38.4,33.3-44.9
			c0.7,0,1.2,0.9,1.2,1.5c-4.7,5.5-15.4,18.5-19.1,25.4c14.6-15.5,26.8-24.5,31.9-24.6c1.8,0,2.8,1,2.8,2.7
			c0.3,14.6-25.9,25-25.6,41.2c0.1,6,3.7,10.6,9,13.7c0.4-6.1,2.8-12.2,6.4-18.1c-1.5-1.8-2.2-3.9-2.2-6
			C289,187.8,295.7,180.5,306.4,180.3 M315.3,221.8c-4.9,1.8-9.7,2.8-14.2,2.9c-4,0.1-8-0.5-11.7-1.7l0,0.8c0.1,4.8,2.3,7.9,7.3,7.8
			C302.2,231.4,309.3,227.5,315.3,221.8 M318.4,218.4c5.2-6.1,8.8-13.5,8.7-20.9c-0.2-8-6.5-13-13.9-14.8
			c-6.5,5.7-12.6,12.6-17,19.8c2.8,1.6,6.8,2.6,12.1,2.5l0.2,0l-0.6,0.8l-0.4,0c-5.1,0.1-9.2-0.7-12.1-2.1c-3.3,5.7-5.4,11.5-6,17.1
			c3.6,1.3,7.7,2,11.8,1.9C306.6,222.5,312.5,221,318.4,218.4 M290.9,194.3c0,1.7,0.5,3.2,1.5,4.7c4.1-6.3,9.5-12.1,15.4-17.1
			c-0.4-0.1-0.8-0.1-1.2-0.1C296.6,182,290.8,188.3,290.9,194.3 M341.1,168.3c-7.3,0.1-17.3,5.4-26.6,13.1
			c7.4,2.1,13.6,7.5,13.8,15.8c0.1,7-2.5,13.9-6.5,19.6c15.9-8,30.2-23,30-36.2C351.6,171.7,347.3,168.2,341.1,168.3"/>
		<path fill="#231F20" d="M176.5,74.5l0.4,0.4c-6.9,5.7-12.7,13.4-17.4,21.1c8.3-7.4,16.6-11.6,21.4-11.5c2.2,0,3.2,1.6,3.2,4.2
			c0,3.3-1.7,8.3-4.2,13.6c2.1-0.8,4.2-1.6,6.6-2.4l0,1.4c-2.6,0.8-5,1.6-7.3,2.5c-6.2,12-17.2,25.2-26.4,25.2c-3.2,0-5-1.2-4.9-3.3
			c0-4.4,7.9-12.5,23.9-19.9c5.4-8,9.7-15.8,9.7-18.7c0-0.7-0.3-1.1-0.9-1.1c-4.3,0-15.2,5.6-24,15.1c-3.4,6.1-6.2,11.8-8.3,16.3
			c-12.5,27.1-28.4,60-60,59.9C76,177.2,68,165.3,68,154.5c0-8.3,2.7-16.7,7.3-24.1l1.1,0.8c-4.2,6.9-6.8,14.4-6.8,22.2
			c0,11.6,7.7,22,19.5,22c24.1,0.1,40.3-41.1,59.3-70.3C156.5,92.8,165.9,81.9,176.5,74.5 M151.1,127.4c3.7,0,12.2-9.8,19.3-19.9
			c-13.4,6.7-21.4,15-21.4,18.4C149,126.9,149.6,127.4,151.1,127.4"/>
		<path fill="#231F20" d="M184.3,129.1c2.8,0,13-9.5,20.2-17.2c4.2-4.4,7.8-8.4,9.3-10l0.5,0.5c0,0-7.8,9-9.7,11.3
			c-2.2,2.7-15.2,17.1-19.7,17.1c-4,0-5.7-6.9-5.7-8.7c0.1-14.1,11.9-29.7,33.3-39.8c2.1-1,3.9-1.5,5-1.5c0.8,0,1.6,0.5,1.6,1.2
			c0,4.6-17.8,19.8-28.9,25c-4.4,6.5-7.2,12.8-7.2,17.2C183,125.6,183.4,129.1,184.3,129.1 M217,82.6c-0.2,0-0.5,0.1-0.7,0.2
			c-9.1,4.8-18.3,13.7-24.8,22.5c16.6-9.3,25.9-21,25.9-22.3C217.5,82.7,217.2,82.6,217,82.6"/>
		<path fill="#231F20" d="M261.1,82.3c-5.9,7.3-33.4,31.3-33.4,44.1c0,1.4,0.7,2.2,1.6,2.2c2.6,0,10.4-7.6,17.2-14.8
			c4.8-5,9.1-9.9,10.9-11.7l0.5,0.5c0,0-7.8,9-9.7,11.3c-2.2,2.7-14.5,16.8-19,16.8c-2.9,0-3.6-6.5-3.6-8.4c0-7.2,6-15.8,10.2-21
			l-0.2-0.3c-6.7,5.9-22.9,22.3-29.8,27.4c-0.2,0.2-0.5,0.2-0.7,0.2c-1.3,0-1.8-2.7-1.8-3.7c0.1-20,28-43.1,47-43.1
			c1.6,0,1.9,1,1.9,2.2c0,0.8-0.2,1.7-0.3,2.4c2.2-1.8,6.9-5.8,7.8-5.8C260.6,80.7,261.1,81.7,261.1,82.3 M249.5,83.4
			c-9.3,0-37.7,23.3-43.7,41.4c-0.2,0.5-0.2,0.8-0.2,1.1c0,0.2,0.1,0.3,0.2,0.3c0.2,0,0.5-0.2,0.8-0.4
			c15.7-14.5,31.4-29.2,43.8-38.7c0.3-1,0.4-1.6,0.4-2.2C250.9,83.7,250.3,83.4,249.5,83.4"/>
		<path fill="#231F20" d="M264.9,130c-0.8-3.3-0.9-6.4-0.7-10.7c0.3-6.3,1.3-9.7,2.6-11.4c8.8-11.3,25.9-14.4,25.9-20.5
			c0-0.7-0.5-1.5-1.7-1.6c-3.5,0-31,21.4-50,46c0,0-0.6-0.2-0.6-1.1c6.4-12.7,15.7-28.1,27.3-42.3c-6,1.8-16.6,4.5-25.6,4.5
			c-9.1,0-16.7-2.7-16.7-11.6c0-3.5,1.6-7.5,4.2-11.4c0.5-12.1,14-28.5,41.2-28.9l0.5,1.1c-25.5,0-38.8,14.6-40.5,26
			c7.3-9.7,21-18.7,35.8-18.6c11.1,0,15.3,3.9,15.3,9.2c0,10.8-23.3,24-38.9,23.9c-7.2,0-12.8-2.9-13.5-10.3c-1.6,3.1-2.6,6-2.6,8.6
			c0,8,7.2,10.6,15.7,10.6c9.5,0,20.8-3,25.7-4.7l1-0.3c7.4-8.8,15.6-17.2,24.5-24c5.1-3.9,15.9-10.3,21.6-10.2
			c1.1,0,1.6,0.5,1.6,1.2c0,9.1-19.1,23-40.1,31.6c-8.2,9.2-17.1,20.3-26.2,33.1c11.5-10.9,33.3-33.5,40.8-33.5c2,0,3,1.1,3,2.9
			c-0.1,13.5-14.8,13.4-24.2,22.5c-1.8,1.8-4.7,7.7-5,12.7c-0.1,2.5-0.1,4.2,0.6,7.2 M280.3,58.8c0-4.9-4-8.5-14.4-8.5
			c-14.8-0.1-28.8,10-35.3,20c0,7.7,5.4,10.8,12.6,10.9C258,81.2,280.3,68.8,280.3,58.8 M279.7,81.9c19.8-9.6,35.1-23.7,35.1-27.6
			c0-0.6-0.3-0.8-0.9-0.8c-2.5,0-10.1,5.1-14.3,8.7C294.3,66.8,287.4,73.4,279.7,81.9"/>
		<path fill="#231F20" d="M141.8,64.5c2.6-1.8,5.8-3.4,9.9-4.8c4-1.2,8-2.4,11.9-2.4c6,0,10.2,1.8,10.2,5.8c0,7-16.2,18.4-33.5,22.6
			c-0.3,11.6-1.9,22.6-10,33.4c-10.8,14.5-28.9,24-51.1,23.9c-11.6,0-21.5-5.2-21.4-18.4c0-0.8,0-1.7,0.1-2.5
			c-2.3-3.4-3.7-7.8-3.6-13.6c0.1-17.3,20.1-33.3,33.9-33.2c5,0,9.1,2.1,11.1,7c0.8-0.1,1.6-0.1,2.4-0.1c8.3,0,14.4,4,14.4,13
			c-0.1,19.6-23.2,34.7-41.1,34.6c-6.1,0-11.6-1.8-15.4-5.8l0,1.3c0,8.6,4.1,14.3,13.5,14.3c27.8,0.1,50.9-24.9,55.8-47.3
			c0.3-1.8,0.7-3.5,1.1-5.1l-1.9,0c-12.7,0-19-6-18.9-12.2c0-6.5,7-13.1,20.7-13C133.9,62,138.2,62.8,141.8,64.5 M58.1,119.7
			c2.9-21.1,24-35.4,39.9-37.3c-2-4-5.6-5.8-9.9-5.8c-12.9,0-32.3,15.6-32.4,32.4C55.7,113.4,56.5,116.9,58.1,119.7 M59.5,121.9
			c3.4,4.2,8.8,6.1,14.9,6.1c17,0.1,39.4-14.5,39.5-33.1c0-7.7-5.4-11.2-12.8-11.2c-0.4,0-0.8,0-1.3,0.1c0.6,1.9,0.9,4.2,0.9,6.9
			c0,9.7-9.8,22.7-22,22.6c-1.8,0-2.8-1.2-2.8-2.6c0-1.4,1-3.1,3.1-4.1c0.5,2.1,1.8,2.9,3.3,3c10.7,0,17.2-13.6,17.2-18.8
			c0-2.7-0.3-5-1-6.8C83.3,85.2,61.6,99.7,59.5,121.9 M130.2,85.7c2.1-8.8,4.3-15.3,10.2-20.1c-3.4-1.4-7.4-2-11.3-2.1
			c-12.2,0-18.3,5.6-18.3,11.2c0,5.5,5.8,11,17.3,11.1C128.7,85.7,129.4,85.8,130.2,85.7 M144.7,66.2c3.4,2.5,5.7,5.9,6.2,10.6
			l-0.8,0.7c-0.4-4.5-2.9-7.9-6.4-10.2c-2,2.5-3.3,5.5-3.3,8.8l0,2.1c0,2.1,0,4-0.1,6.1c16.7-3.9,30.5-14.6,30.5-20.7
			c0-3-3.7-5.1-7.7-5.1C157.2,58.5,149.4,61.3,144.7,66.2"/>
		<path fill="#231F20" d="M185.5,139.7c7.3-4.9,14.4-7.9,21.3-8.1c3.4-0.1,6.1,1.2,6.2,5c0.2,7.9-21.8,22.3-41,23.2
			c-12.8,16-27.9,35.2-48.3,46.8c20.1,1.5,46.2,8.5,65.4,8.1c8.9-0.2,16.4-1.9,21-6.5c-3.6,11.5-11.9,15.5-22.6,15.7
			c-19.6,0.4-47.2-12.1-67.4-15.3c-9.9,5.1-21,8.3-33.6,8.6c-3.3,0.1-5.8-1.1-5.8-2.8c-0.1-2.9,7.3-7,30.4-7.9
			c16.9-10.9,34-30.2,50.6-46.5c-9.9,6.2-21,10.2-28.5,10.4c-7.6,0.1-10.8-3.7-10.8-7.3c-0.1-3.2,2.1-6.2,5.8-6.5
			c-0.5,1.9-0.8,3.5-0.8,4.9c0.1,4.9,3.4,7,8.5,6.9c6.4-0.1,15.8-3.8,25.3-9.9c-5.1-2-7.8-5.6-7.8-9.4c-0.1-6,6.2-12.2,18.8-12.4
			C177,136.5,181.8,137.5,185.5,139.7 M108.7,208c-18.1,0.6-25.9,4.1-25.8,6.1c0,0.8,1.4,1.4,4,1.3
			C94.1,215.2,101.4,212.4,108.7,208 M162.9,157.4c2.4-1.7,4.9-3.5,7.3-5.5c4.7-4.3,9.4-8.1,14-11.3c-3.6-1.9-8.1-2.7-12.4-2.6
			c-11.2,0.2-16.7,5.5-16.6,10.7C155.2,152.2,157.8,155.6,162.9,157.4 M205.2,132.8c-5.8,0.1-11.4,3.5-17.2,8.8
			c2.2,2,3.7,4.7,4.1,8.2l-0.7,0.6c-0.4-3.3-2-6-4.3-7.9c-4.5,4.3-9.2,9.9-14.1,15.9c19.3-1.1,37.3-14.5,37.1-21.3
			C210.1,133.8,207.9,132.7,205.2,132.8"/>
		<path fill="#231F20" d="M252.2,256.8c-5.5,7.6-31.6,33.2-30.9,46c0.1,1.4,0.8,2.2,1.7,2.1c2.6-0.1,9.9-8.2,16.4-15.8
			c4.5-5.3,8.6-10.4,10.3-12.4l0.5,0.5c0,0-7.3,9.4-9.1,11.9c-2.1,2.8-13.5,17.6-18,17.8c-2.9,0.2-4-6.3-4.1-8.2
			c-0.4-7.2,5.1-16.2,9-21.6l-0.2-0.3c-6.3,6.3-21.6,23.5-28.2,29.1c-0.2,0.2-0.5,0.3-0.6,0.3c-1.3,0.1-1.9-2.6-2-3.6
			c-1.1-20,25.6-44.7,44.5-45.7c1.6-0.1,2,0.9,2.1,2.1c0,0.8-0.2,1.7-0.2,2.5c2.1-1.9,6.6-6.2,7.5-6.3
			C251.7,255.2,252.2,256.1,252.2,256.8 M240.8,258.5c-9.3,0.5-36.4,25.4-41.3,43.8c-0.1,0.5-0.2,0.8-0.2,1.1c0,0.2,0.1,0.3,0.3,0.3
			c0.2,0,0.5-0.2,0.8-0.4c14.9-15.4,29.7-31,41.6-41.1c0.3-1,0.3-1.6,0.3-2.2C242.2,258.7,241.6,258.5,240.8,258.5"/>
		<path fill="#231F20" d="M289.8,256.7l-1,0.2c-10.7,6.5-34.3,36-33.9,44.1c0.1,1.4,0.8,2.2,1.7,2.1c2.6-0.1,9.9-8.2,16.4-15.8
			c4.5-5.3,8.6-10.4,10.3-12.4l0.5,0.5c0,0-7.3,9.4-9.1,11.9c-2.1,2.8-13.5,17.6-18,17.8c-2.8,0.1-4.3-2.1-4.5-5.8
			c-0.5-10,8.7-30.3,31.2-40.9c-6.6,2-12.5,4.1-16.9,4.3c-0.7,0-1.4,0.1-2,0c-5.3,4.6-11.2,10.6-18.9,20.4c-1.8,2.4-3.7,4.8-4.5,5.9
			l-1.7,0l5.4-6.5c2.3-2.7,4.4-5.5,6.7-7.9c4.2-4.7,8.1-8.9,11.6-12.2c-2.9-0.7-3.6-2.5-3.6-4.2c-0.3-4.9,7.2-10.2,11.7-10.5
			c-2.8,2.8-3.9,4.9-3.8,6.4c0.2,2.9,4.8,3.7,10.3,3.4c4.2-0.2,8.9-1,12.2-1.9L289.8,256.7z"/>
		<path fill="#231F20" d="M280.3,302.5c2.8-0.1,12.5-10.3,19.2-18.3c3.9-4.6,7.3-8.9,8.7-10.6l0.5,0.5c0,0-7.3,9.4-9.1,11.9
			c-2.1,2.8-14.2,17.9-18.8,18.2c-4,0.2-6.1-6.5-6.2-8.4c-0.7-14.1,10.2-30.4,31-41.6c2.1-1.1,3.8-1.8,5-1.8c0.8,0,1.6,0.4,1.7,1.1
			c0.2,4.6-16.7,20.8-27.4,26.6c-4,6.7-6.5,13.2-6.2,17.6C278.8,299,279.4,302.5,280.3,302.5 M310.3,254.1c-0.2,0-0.5,0.1-0.6,0.2
			c-8.8,5.3-17.6,14.7-23.5,23.9c16.1-10.2,24.7-22.5,24.6-23.8C310.8,254.2,310.6,254.1,310.3,254.1"/>
		<path fill="#231F20" d="M205.2,259.2c-3.6,0.2-30.7,23.7-48.9,50.1c0,0-0.6-0.1-0.6-1.1c7.3-16.7,17.7-36.4,31.9-53.3l-1.6,0.1
			c-12,0.6-20.7-4.2-21-11.4c-0.2-4.3,2.5-9.3,9-14.7c-3.8,4.1-5.3,8.1-5.1,11.7c0.4,7.6,8.5,13,18.4,12.5l2-0.1
			c5.7-6.7,12.1-12.8,19.1-18.3c1.4-1.1,10.7-8.3,14.6-8.5c1-0.1,1.6,0.3,1.7,1.4c0.2,3.7-10.1,20.6-29.2,25.9
			c-8.6,10.2-18.8,23.6-29.9,41.2c11.2-11.9,32.4-36.3,40.1-36.7c2-0.1,3.2,1,3.2,2.9c0.4,8.2-13.9,21-21.5,30.1
			c-3,3.6-4.5,7.4-4.3,10.9c0.2,4,2.6,7.6,7.5,10c-1.1,0.7-2.3,1.1-3.4,1.2c-5.9,0.3-8-3.7-8.2-8.7c-1.1-23.2,28.4-38.6,28.1-43.6
			C207,260,206.4,259.1,205.2,259.2 M222.5,227.3c-1.5,0.1-8.5,6.4-9,6.8c-4.2,4-9.8,9.5-16.3,17.1c17.9-5.5,26.1-21.7,26-23.3
			C223.2,227.4,222.6,227.3,222.5,227.3"/>
		<path fill="#231F20" d="M158.7,236.5c2.5-2,5.6-3.7,9.6-5.3c3.8-1.5,7.8-2.8,11.7-3c5.9-0.3,10.2,1.2,10.4,5.1
			c0.4,6.9-15,19.1-31.9,24.2c0.4,11.5-0.6,22.5-8.1,33.6c-9.9,14.9-27.3,25.4-49.2,26.5c-11.5,0.6-21.6-3.9-22.2-17
			c0-0.8-0.1-1.7,0-2.5c-2.5-3.2-4.1-7.5-4.4-13.3c-0.9-17.1,18-34.1,31.7-34.8c4.9-0.3,9.1,1.5,11.4,6.3c0.8-0.1,1.6-0.2,2.3-0.2
			c8.2-0.4,14.5,3.2,15,12.1c1,19.4-21,35.6-38.8,36.6c-6.1,0.3-11.6-1.1-15.6-4.8l0.1,1.2c0.4,8.5,4.9,13.9,14.1,13.4
			c27.5-1.5,49-27.5,52.6-49.9c0.2-1.8,0.5-3.5,0.8-5.1l-1.9,0.1c-12.6,0.7-19.1-4.9-19.4-11c-0.3-6.4,6.2-13.3,19.8-14.1
			C150.8,234.5,155.1,235.1,158.7,236.5 M79.1,295.9c1.7-21,21.8-36.3,37.4-39.2c-2.2-3.9-5.9-5.4-10.1-5.2
			c-12.8,0.7-31.1,17.2-30.2,33.9C76.3,289.8,77.3,293.2,79.1,295.9 M80.6,298c3.6,4,9,5.5,15.1,5.2c16.8-0.9,38.2-16.5,37.2-35
			c-0.4-7.7-6-10.8-13.3-10.4c-0.4,0-0.8,0-1.2,0.2c0.7,1.9,1.1,4.1,1.3,6.8c0.5,9.6-8.5,23-20.5,23.6c-1.8,0.1-2.8-1-2.9-2.4
			c-0.1-1.4,0.8-3.1,2.9-4.2c0.6,2.1,1.9,2.8,3.4,2.7c10.6-0.6,16.2-14.5,16-19.6c-0.1-2.7-0.6-4.9-1.4-6.7
			C102,260.3,81.4,275.9,80.6,298 M148.4,258.2c1.5-8.8,3.4-15.4,8.9-20.5c-3.5-1.2-7.4-1.6-11.3-1.4c-12.1,0.6-17.8,6.5-17.5,12.1
			c0.3,5.5,6.4,10.6,17.7,10C147,258.3,147.7,258.3,148.4,258.2 M161.7,238.1c3.5,2.2,6,5.5,6.7,10.2l-0.7,0.7
			c-0.7-4.5-3.3-7.7-6.9-9.7c-1.9,2.6-3,5.6-2.8,8.9l0.1,2.1c0.1,2.1,0.2,4,0.2,6c16.3-4.8,29.3-16.1,29-22.2
			c-0.2-3-3.9-4.8-7.9-4.6C173.6,229.7,166.1,233,161.7,238.1"/>
		<path fill="#231F20" d="M265.3,126.1c0.2,1.3,0.4,2.6,0.8,3.9c20.8-0.1,35.8,3.3,37.5,12.1c8.1,2.9,13.2,7.2,13.9,13.2
			c0.3,2.3-0.6,6.3-5.9,7c-1.6,0.2-3.5,0.1-5.9-0.4c6.7-2.6,6.5-7.2,6.2-10c-0.4-3.3-3.4-5.9-8.2-7.8c-0.5,3.3-3.9,6.2-9.7,6.9
			c-11.4,1.5-19.8-4.5-24.7-11.7c-21.6-0.5-48.7,1.6-74,4.8c-22.5,2.9-43.6,6.7-58.3,10.6l-2.2-1.2c16.7-6.8,55.7-16,92-20.7
			c13.5-1.7,26.7-2.8,38.1-3c-0.3-1.1-0.5-2.2-0.6-3.2 M301.8,143.5c-7.3-2.5-18.1-3.7-31-4.1c5.1,6.8,13,11.6,22.8,10.3
			C298.9,149.1,301.7,146.5,301.8,143.5 M301.4,141.4c-2.4-7.2-16.2-10-34.9-10c0.7,2,1.6,3.9,2.7,5.7
			C281.9,137.5,293,138.8,301.4,141.4 M141.3,152.5c16.1-3.9,38.7-8.1,62.2-11.1c22.1-2.8,45-4.6,64.4-4.2c-1.1-1.9-1.9-3.8-2.5-5.7
			c-11.9,0.1-25.7,1.3-39.9,3.1C192.3,138.8,157.4,146.6,141.3,152.5"/>
		<path fill="#231F20" d="M272.6,122.4c10.4-3.8,28.1-10.7,29.5-22.5c0.2-1.4,0.2-2.8,0.1-4.5c2.3,1.4,3.2,3.3,2.9,5.5
			c-0.5,4.3-5.1,9.4-9.9,12.9c14.6-5.9,30.6-12.1,44.4-10.5c5.5,0.6,8.1,4,7.7,7.6c-0.2,2-1.3,4-3.4,5.7c-0.2-5.9-5.1-8.2-10.7-8.8
			c-15.6-1.8-44.9,10.6-60.9,16 M278.2,124.1c15.7-2.6,33.4-8.1,44.3-6.8c5.5,0.6,9.7,2.3,9.4,5.1c-0.1,1.1-1,2.5-2.8,4
			c-0.3-3.6-2.7-7.3-8.5-7.9c-11.2-1.3-27.5,4-43,6.5"/>
		<path fill="#231F20" d="M294.6,308.9c-0.3,1.5-0.4,3.1-0.2,4.7c-0.1,0.2-0.3,0.3-0.6,0.3c-0.8,0.1-1.3-0.9-1.1-1.7
			c0.2-0.9,0.6-1.7,0.6-1.7s-2.4,1.3-2.8,3.5c-0.4,2.1,0.3,4.5,2.5,6c0.7,0.5,1.5,0.9,2.4,1.3c-0.1-0.7-0.2-1.4-0.2-2.1
			c0-0.6,0-1.2,0.1-1.7c0,0,0,0,0,0c0-0.2,0.1-0.5,0.1-0.7c0,0,0-0.1,0-0.1c0.1-0.3,0.1-0.6,0.2-0.9c0,0,0-0.1,0-0.1
			c0-0.1,0.1-0.3,0.1-0.4c0-0.1,0.1-0.2,0.1-0.2c0-0.1,0.1-0.1,0.1-0.2c0-0.1,0.1-0.1,0.1-0.2c0-0.1,0.1-0.1,0.1-0.2
			c0.1-0.1,0.1-0.3,0.2-0.4c0,0,0-0.1,0.1-0.1c0-0.1,0.1-0.2,0.2-0.3c0,0,0-0.1,0.1-0.1c0.1-0.1,0.1-0.3,0.2-0.4c0,0,0,0,0-0.1
			c0.1-0.1,0.1-0.2,0.2-0.4c0,0,0,0,0-0.1c0.1-0.1,0.2-0.3,0.3-0.4c0,0,0,0,0,0c0.1-0.1,0.2-0.3,0.3-0.4c0,0,0,0,0,0
			c0.1-0.1,0.2-0.3,0.3-0.4c1-1.2,2.2-2.1,3.5-2.9c-1-0.8-1.4-2.5-1.1-4c0.6-2.3,1.6-4.6,1.6-4.6S295.7,303.2,294.6,308.9"/>
	</g>
	<g>
		<path fill="#231F20" d="M319.1,292.3c0.4,3.6,2.4,5.7-0.1,7.8c-2.5,2.1-4.6,2.1-6.2,1.1c-2.5-1.4-1.1-5.9-1.1-5.9
			s-3.7-0.1-4.8,3.9c-0.8,2.6-0.8,5.8-1.5,7.7c0.7-0.1,1.4-0.2,2.1-0.2c6.8,0,12.2,5.5,12.2,12.2c0,1.5-0.3,3-0.8,4.3
			c0-0.3-0.1-0.5-0.2-0.8c-0.7-1.2-1.2-1.4-1.2-1.4s0,1.5-0.9,2.4c-0.9,0.8-2.5,0.8-3.3,0.1c-0.8-0.7-1-2.5,0.1-3.3
			c1.1-0.8,2.9-0.9,3.3-2.8c0.4-1.9-2.4-1.7-2.8-2.6c-0.3-0.9,0.7-3,0.7-3s-2.7,0.4-2.5,2.2c0.2,1.8,1.2,2.9-0.1,3.9
			c-1.2,1-2.3,1-3.1,0.6c-1.2-0.7-0.6-2.9-0.6-2.9s-1.9-0.1-2.4,2c-0.6,2-0.3,4.6-1.8,4.8c-1.1,0.1-1.7-1.1-1.5-2.3
			c0.3-1.2,0.8-2.3,0.8-2.3s-3.2,1.7-3.8,4.6c-0.6,2.8,0.4,5.9,3.3,7.9c2.9,2,7.1,3.8,10.8,2.7c1.6-0.5,2.8-1.3,3.5-2.5
			c1.8,0.1,3.6-0.1,5.4-0.6c3.2-0.9,5.6-2.6,7-5.1c1.4-2.5,1.4-4.7,1.4-4.7s-2.9,3.2-4.7,2.3c-1.8-1,0.3-5.1,2.6-6.5
			c2.3-1.4,4.7-4.7,3.2-7c-1.5-2.3-2.3-2.8-2.3-2.8s-0.1,3.1-1.8,4.7c-1.7,1.6-4.9,1.6-6.6,0.2c-1.7-1.4-2-5,0.2-6.6
			c2.3-1.6,5.7-1.7,6.6-5.6c0.9-3.9-4.9-3.3-5.5-5.2c-0.7-1.8,1.4-6,1.4-6S318.7,288.7,319.1,292.3"/>
	</g>
	<g>
		<path fill="#231F20" d="M239.9,244c-1,0.1-1.9,0.2-2.8,0.2c-5.5,0-8.4-2.9-8.4-6.6c0-4.9,5-11,15.5-13.6l2.8-0.7
			c1.3-1.9,2.6-3.7,4.1-5.2c-2.7,1.1-5.3,2.6-7.4,4.4l-0.6-0.1c2.4-2.2,5.5-3.9,8.8-5c3.8-3.7,8.1-6.2,12.6-6.2
			c1.8,0,2.9,0.8,2.9,2.1c0,1.4-0.8,2.7-2.1,3.8c2.9,1,4.2,2.8,4.2,4.9c0,7-12.9,18.3-25.8,21.4c-0.1,1-0.2,1.9-0.2,2.7
			c0,2.6,0.9,4.2,3.1,4.2c2.2,0,5-1.2,6.2-2c4.1-2.7,8.9-7.6,11.4-12.5c0.1-0.3,0.3-0.4,0.4-0.4c0.1,0,0.2,0.1,0.2,0.3
			c-1.9,4.2-6.7,9.6-11.3,12.6c-2.2,1.5-5.1,2.7-7.3,2.7C242,251,240.2,248.1,239.9,244 M239.9,243.4v-0.3c0-5.4,2.6-12.7,6.6-19
			l-1.8,0.5c-10.6,3-15,8.6-15,12.9c0,3.5,2.9,6.2,7.6,6.2C238.1,243.6,239,243.5,239.9,243.4 M243.8,242.6
			c11.7-3.4,24-14.3,24-20.8c0-1.8-1-3.3-3.2-4.2c-2.8,2-7.3,3.6-11.6,4.8C248.7,228.7,245,236.7,243.8,242.6 M253.6,221.4
			c3.7-1.2,7.4-2.6,9.9-4.3c-1.3-0.4-3-0.6-5-0.6c-0.4,0-0.8,0-1.2,0C256.1,218,254.9,219.6,253.6,221.4 M257.9,216.1
			c0.4,0,0.8,0,1.2,0c2.1,0,3.8,0.2,5.2,0.6c1.4-1,2.2-2.1,2.2-3.3c0-0.8-0.4-1.5-1.4-1.5C262.9,211.8,260.4,213.5,257.9,216.1"/>
		<path fill="#231F20" d="M122.6,249.2c-16.1-6.1-45.5-19.7-61.4-18.4c-5.8,0.5-10.8,2.6-11.2,8.6c-2-1.9-3.1-3.9-3.3-6
			c-0.3-3.7,2.5-7,8-7.5c14.1-1.2,30.2,5.7,44.9,12.2c-4.8-3.8-9.3-9.1-9.6-13.5c-0.2-2.2,0.7-4.1,3.1-5.5c-0.1,1.6-0.1,3.1,0,4.5
			c1,12.1,18.7,19.7,29.2,23.9 M117.2,250.1c-15.7-3.1-32.1-9-43.6-8.1c-5.9,0.5-8.5,4.1-8.9,7.8c-1.8-1.6-2.6-3-2.7-4.2
			c-0.2-2.9,4.1-4.4,9.7-4.9c11.1-0.9,29,5.2,44.9,8.4"/>
		<path fill="#231F20" d="M194.1,253.6l0.1,0.8c-22.6,2-34.1,13.4-34.1,27.5c0,13,9,27.8,26,37.7c15.2-7.1,30.2-12.8,43-12.8
			c10.1,0,16.5,2.7,19.7,6.4c3.4-0.7,6.6-1.1,9.8-1.1c17,0,25.4,7.7,25.4,16.1c0,10.6-13.1,22.5-39.5,22.5
			c-14.8,0-30.4-3.9-46.1-8.8c-16.2,9.3-33,17.3-49.1,17.3c-4.3,0-11-2.8-11-7.1h0.8c0,3.9,6.2,6.4,10.2,6.4
			c10.7,0,26.2-8.7,43-18.5c-7.5-2.5-15.1-5.1-22.6-7.7c-17.9,9-36.5,16.9-52.6,16.9c-17,0-24.4-7-24.4-14.2c0-7.5,8.2-15.2,22-15.2
			c16.2,0,33.2,4.6,50.5,10.2c6.5-3.4,13.1-6.8,19.7-9.9c-17.1-10.1-25.9-25-25.9-38.2C159.1,267.3,171.3,255,194.1,253.6
			 M233.4,347.5c27.2,0,37.4-11.2,37.4-18.5c0-3.5-2.3-6.1-6.2-6.1c-7.5,0-10.1,3-10.1,7.2c0,1.4,0.3,3,0.8,4.7
			c-0.7,0.1-1.2,0.2-1.7,0.2c-2.2,0-3.5-1.5-3.5-3.5c0-3.8,4.4-9.3,14.5-9.3c4.3,0,7,2.9,7,6.8c0,7.7-10.4,19.3-38.2,19.3
			c-3,0-6.1-0.2-9.3-0.4c6.9,1.3,13.7,2.1,20.4,2.1c25.8,0,38.7-11.5,38.7-21.7c0-8.1-8.2-15.4-24.7-15.4c-2.8,0-5.8,0.5-9,1.4
			c1.1,1.6,1.6,3.3,1.6,5.1c0,6.3-7,12.7-19.4,12.7c-5.3,0-10.3-0.4-15.1-1.1c-5.7,3.4-11.5,7-17.4,10.5c5.8,1.8,11.5,3.4,17.2,4.8
			C222.6,347.1,228.3,347.5,233.4,347.5 M231.7,331.2c12,0,18.7-6,18.7-11.9c0-1.7-0.6-3.3-1.6-4.8c-9.2,2.8-19.8,8.9-31.1,15.8
			C222.2,330.9,226.9,331.2,231.7,331.2 M211.2,329.1c12.6-7,25.2-13.1,36.7-15.7c-3.1-3.4-9.3-5.9-18.9-5.9c-10,0-23.7,6.4-39,14.3
			C196.3,324.9,203.4,327.5,211.2,329.1 M170.6,331.8c7.5,2.5,15.1,5.2,22.6,7.7c5.5-3.3,11.2-6.5,16.9-9.7
			c-7.8-1.7-14.8-4.3-21.1-7.5C183,325.4,176.9,328.6,170.6,331.8 M103.4,329.6c0,5.2,4.6,10.7,12.7,10.7c3.7,0,6.9-2.6,7.2-9.2
			c2.5,1.1,3.5,2.9,3.5,4.9c0,3.2-3.1,6.6-8,6.6c-10.8,0-16.5-6.8-16.5-12.9c0-3.4,1.7-6.6,5.3-8.4c-9,2-14.2,7.9-14.2,13.7
			c0,6.8,7.1,13.4,23.5,13.4c12.1,0,29-8.6,47.2-17.9c-16.9-5.5-33.7-10-49.6-10h-0.4C106.9,320.8,103.4,325.1,103.4,329.6"/>
	</g>
</g>
</svg>
